<?xml version="1.0" encoding="utf-8"?>
<!-- Generator: Adobe Illustrator 24.0.2, SVG Export Plug-In . SVG Version: 6.00 Build 0)  -->
<svg version="1.1" id="Layer_1" xmlns="http://www.w3.org/2000/svg" xmlns:xlink="http://www.w3.org/1999/xlink" x="0px" y="0px"
	 viewBox="0 0 792 612" style="enable-background:new 0 0 792 612;" xml:space="preserve">
<style type="text/css">
	.st0{fill:url(#SVGID_1_);}
	.st1{fill:url(#SVGID_2_);}
	.st2{opacity:0.59;}
	.st3{fill:#F1F2F2;}
	.st4{opacity:0.68;fill:url(#SVGID_3_);enable-background:new    ;}
	.st5{opacity:0.82;fill:url(#SVGID_4_);enable-background:new    ;}
	.st6{opacity:0.92;fill:url(#SVGID_5_);enable-background:new    ;}
	.st7{opacity:0.79;fill:url(#SVGID_6_);enable-background:new    ;}
	.st8{opacity:0.79;fill:url(#SVGID_7_);enable-background:new    ;}
	.st9{opacity:0.79;fill:url(#SVGID_8_);enable-background:new    ;}
	.st10{opacity:0.79;fill:url(#SVGID_9_);enable-background:new    ;}
	.st11{fill:url(#SVGID_10_);}
	.st12{fill:url(#SVGID_11_);}
	.st13{fill:url(#SVGID_12_);}
	.st14{fill:url(#SVGID_13_);}
	.st15{fill:url(#SVGID_14_);}
</style>
<g>
	
		<linearGradient id="SVGID_1_" gradientUnits="userSpaceOnUse" x1="396" y1="612" x2="396" y2="156" gradientTransform="matrix(1 0 0 -1 0 612)">
		<stop  offset="6.229999e-03" style="stop-color:#1F000A"/>
		<stop  offset="0.3144" style="stop-color:#300454"/>
		<stop  offset="0.9927" style="stop-color:#0066AB"/>
	</linearGradient>
	<rect class="st0" width="792" height="456"/>
	
		<radialGradient id="SVGID_2_" cx="270.3" cy="480.95" r="55.5253" gradientTransform="matrix(1 0 0 -1 0 612)" gradientUnits="userSpaceOnUse">
		<stop  offset="0" style="stop-color:#F1F7E6"/>
		<stop  offset="0.9897" style="stop-color:#A3ACB1"/>
	</radialGradient>
	<path class="st1" d="M254,114.4c-2-9.7,0.2-17.7,2-24.2c1.8-6.6,4.2-11.6,5.7-14.5c-27.3,5.1-47.1,28.6-47.1,55
		c0,30.6,25.1,55.7,55.7,55.7s55.7-25.1,55.7-55.7c-6.1,4-19.1,11.3-36,10.7c-7.1-0.2-18.4-0.6-27-9
		C256.4,125.9,254.7,117.9,254,114.4L254,114.4z"/>
	<g class="st2">
		<path class="st3" d="M328,37.9c2.4,0,2.4-3.8,0-3.8C325.6,34.2,325.6,37.9,328,37.9z"/>
		<path class="st3" d="M486,101.5c3.2,0,3.2-5,0-5S482.8,101.5,486,101.5z"/>
		<path class="st3" d="M198,68.3c1.6,0,1.6-2.5,0-2.5S196.4,68.3,198,68.3z"/>
		<path class="st3" d="M267,110.3c1.6,0,1.6-2.5,0-2.5S265.4,110.3,267,110.3z"/>
		<path class="st3" d="M426,282.3c1.6,0,1.6-2.5,0-2.5S424.4,282.3,426,282.3z"/>
		<path class="st3" d="M516,213.3c1.6,0,1.6-2.5,0-2.5S514.4,213.3,516,213.3z"/>
		<path class="st3" d="M634,298.3c1.6,0,1.6-2.5,0-2.5S632.4,298.3,634,298.3z"/>
		<path class="st3" d="M739,216.3c1.6,0,1.6-2.5,0-2.5S737.4,216.3,739,216.3z"/>
		<path class="st3" d="M688,147.3c1.6,0,1.6-2.5,0-2.5S686.4,147.3,688,147.3z"/>
		<path class="st3" d="M775,35.3c1.6,0,1.6-2.5,0-2.5S773.4,35.3,775,35.3z"/>
		<path class="st3" d="M64,298.3c1.6,0,1.6-2.5,0-2.5S62.4,298.3,64,298.3z"/>
		<path class="st3" d="M43,159.3c1.6,0,1.6-2.5,0-2.5S41.4,159.3,43,159.3z"/>
		<path class="st3" d="M132,82.3c1.6,0,1.6-2.5,0-2.5S130.4,82.3,132,82.3z"/>
		<path class="st3" d="M77,56.9c2.4,0,2.4-3.8,0-3.8C74.6,53.2,74.6,56.9,77,56.9z"/>
		<path class="st3" d="M103,119.9c2.4,0,2.4-3.8,0-3.8C100.6,116.2,100.6,119.9,103,119.9z"/>
		<path class="st3" d="M458,83.9c2.4,0,2.4-3.8,0-3.8C455.6,80.2,455.6,83.9,458,83.9z"/>
		<path class="st3" d="M346,185.9c2.4,0,2.4-3.8,0-3.8C343.6,182.2,343.6,185.9,346,185.9z"/>
		<path class="st3" d="M164,323.9c2.4,0,2.4-3.8,0-3.8C161.6,320.2,161.6,323.9,164,323.9z"/>
		<path class="st3" d="M259,235.9c2.4,0,2.4-3.8,0-3.8C256.6,232.2,256.6,235.9,259,235.9z"/>
	</g>
	
		<linearGradient id="SVGID_3_" gradientUnits="userSpaceOnUse" x1="217.2042" y1="501.0998" x2="217.2042" y2="348.973" gradientTransform="matrix(1 0 0 -1 0 612)">
		<stop  offset="0" style="stop-color:#4787A1"/>
		<stop  offset="0.9949" style="stop-color:#2F1753"/>
	</linearGradient>
	<path class="st4" d="M77,253c-16.7-3.9-27.4-20.3-24.2-36.8c3.2-16.9,20-28.4,37.2-25.2c-1-10.9,6.4-20.8,17-23
		c10.5-2.2,21.1,3.8,24.6,14c-0.6-3-3.3-18.2,6.4-33c9.4-14.5,23.9-18.3,27-19c1.9-10.3,10.2-18.1,20-19c11.2-1.1,22.1,7,24.4,19
		c16.3-5.9,34.3-0.9,44.6,12c8.7,11,10.5,26.1,5,39.5c6.7-11,19.5-16.8,32-14.5c12.9,2.4,23.1,12.9,25,26c0.6-0.3,14-7.6,27,0
		c9.2,5.4,14.4,16.1,13,27c4.9-6.7,13.2-8.9,19-6c5.9,3,8.4,12.3,6.6,18.8C374.4,258,298,261,298,261s-48.4,2.3-99,2
		c-47.8-0.3-71.7-2.8-82-4C100.5,257.1,86.7,254.8,77,253z"/>
	
		<linearGradient id="SVGID_4_" gradientUnits="userSpaceOnUse" x1="663.6732" y1="582.0421" x2="663.6732" y2="505.9775" gradientTransform="matrix(1 0 0 -1 0 612)">
		<stop  offset="0" style="stop-color:#4787A1"/>
		<stop  offset="0.9949" style="stop-color:#2F1753"/>
	</linearGradient>
	<path class="st5" d="M572.2,101c-10.9-1.9-17.8-10.2-15.8-18.4c2.1-8.5,13-14.2,24.3-12.6c-0.6-5.4,4.2-10.4,11.1-11.5
		c6.8-1.1,13.8,1.9,16.1,7c-0.4-1.5-2.1-9.1,4.1-16.5c6.1-7.2,15.6-9.1,17.6-9.5c1.2-5.2,6.7-9,13-9.5c7.3-0.5,14.4,3.5,15.9,9.5
		c10.6-2.9,22.4-0.5,29.1,6c5.7,5.5,6.9,13.1,3.3,19.7c4.3-5.5,12.7-8.4,20.9-7.2c8.4,1.2,15,6.4,16.3,13c0.4-0.2,9.1-3.8,17.6,0
		c6,2.7,9.4,8,8.5,13.5c3.2-3.4,8.6-4.5,12.4-3c3.9,1.5,5.5,6.1,4.3,9.4c-4.7,12.6-54.5,14.1-54.5,14.1s-31.6,1.2-64.6,1
		c-31.2-0.2-46.8-1.4-53.5-2C587.5,103,578.5,101.9,572.2,101L572.2,101z"/>
	
		<linearGradient id="SVGID_5_" gradientUnits="userSpaceOnUse" x1="-2630.7893" y1="556.1463" x2="-2630.7893" y2="489.993" gradientTransform="matrix(-1.1403 0 0 -1 -2443.8162 612)">
		<stop  offset="0" style="stop-color:#4787A1"/>
		<stop  offset="0.9949" style="stop-color:#2F1753"/>
	</linearGradient>
	<path class="st6" d="M618.6,117.6c7.4-1.7,12.2-8.8,10.8-16c-1.4-7.4-8.9-12.3-16.6-10.9c0.4-4.7-2.9-9-7.6-10
		c-4.7-0.9-9.4,1.7-11,6.1c0.3-1.3,1.5-7.9-2.8-14.3c-4.2-6.3-10.7-7.9-12-8.3c-0.8-4.5-4.6-7.8-8.9-8.3c-5-0.5-9.9,3.1-10.9,8.3
		c-7.3-2.6-15.3-0.4-19.9,5.2c-3.9,4.8-4.7,11.4-2.2,17.2c-3-4.8-8.7-7.3-14.3-6.3c-5.8,1-10.3,5.6-11.2,11.3c-0.3-0.1-6.2-3.3-12,0
		c-4.1,2.3-6.4,7-5.8,11.7c-2.2-2.9-5.9-3.9-8.5-2.6s-3.8,5.3-2.9,8.2c3.2,10.9,37.3,12.2,37.3,12.2s21.6,1,44.2,0.9
		c21.3-0.1,32-1.2,36.6-1.7C608.1,119.4,614.2,118.4,618.6,117.6z"/>
	
		<linearGradient id="SVGID_6_" gradientUnits="userSpaceOnUse" x1="248.4648" y1="284.43" x2="248.4648" y2="228.4" gradientTransform="matrix(1 0 0 -1 0 612)">
		<stop  offset="0" style="stop-color:#4787A1"/>
		<stop  offset="0.9949" style="stop-color:#2F1753"/>
	</linearGradient>
	<path class="st7" d="M183.5,379.9c-7.7-1.4-12.7-7.5-11.2-13.6c1.5-6.2,9.3-10.5,17.3-9.3c-0.5-4,3-7.7,7.9-8.5s9.8,1.4,11.4,5.2
		c-0.3-1.1-1.5-6.7,2.9-12.2c4.4-5.3,11.1-6.7,12.5-7c0.9-3.8,4.7-6.7,9.3-7c5.2-0.4,10.2,2.6,11.3,7c7.6-2.2,15.9-0.3,20.7,4.4
		c4,4,4.9,9.6,2.3,14.5c3.1-4.1,9-6.2,14.8-5.3c6,0.9,10.7,4.7,11.6,9.6c0.3-0.1,6.5-2.8,12.5,0c4.3,2,6.7,5.9,6,9.9
		c2.3-2.5,6.1-3.3,8.8-2.2s3.9,4.5,3,6.9c-3.3,9.3-38.7,10.4-38.7,10.4s-22.5,0.9-45.9,0.7c-22.2-0.1-33.3-1-38-1.5
		C194.4,381.4,188,380.6,183.5,379.9L183.5,379.9z"/>
	
		<linearGradient id="SVGID_7_" gradientUnits="userSpaceOnUse" x1="76.9649" y1="312.07" x2="76.9649" y2="256.04" gradientTransform="matrix(1 0 0 -1 0 612)">
		<stop  offset="0" style="stop-color:#4787A1"/>
		<stop  offset="0.9949" style="stop-color:#2F1753"/>
	</linearGradient>
	<path class="st8" d="M12,352.3c-7.7-1.4-12.7-7.5-11.2-13.6c1.5-6.2,9.3-10.5,17.3-9.3c-0.5-4,3-7.7,7.9-8.5s9.8,1.4,11.4,5.2
		c-0.3-1.1-1.5-6.7,2.9-12.2c4.4-5.3,11.1-6.7,12.5-7c0.9-3.8,4.7-6.7,9.3-7c5.2-0.4,10.2,2.6,11.3,7c7.6-2.2,15.9-0.3,20.7,4.4
		c4,4,4.9,9.6,2.3,14.5c3.1-4.1,9-6.2,14.8-5.3c6,0.9,10.7,4.7,11.6,9.6c0.3-0.1,6.5-2.8,12.5,0c4.3,2,6.7,5.9,6,9.9
		c2.3-2.5,6.1-3.3,8.8-2.2s3.9,4.5,3,6.9c-3.3,9.3-38.7,10.4-38.7,10.4s-22.5,0.9-45.9,0.7c-22.2-0.1-33.3-1-38-1.5
		C22.9,353.8,16.5,352.9,12,352.3L12,352.3z"/>
	
		<linearGradient id="SVGID_8_" gradientUnits="userSpaceOnUse" x1="598.4648" y1="323.03" x2="598.4648" y2="267" gradientTransform="matrix(1 0 0 -1 0 612)">
		<stop  offset="0" style="stop-color:#4787A1"/>
		<stop  offset="0.9949" style="stop-color:#2F1753"/>
	</linearGradient>
	<path class="st9" d="M533.5,341.3c-7.7-1.4-12.7-7.5-11.2-13.6c1.5-6.2,9.3-10.5,17.3-9.3c-0.5-4,3-7.7,7.9-8.5s9.8,1.4,11.4,5.2
		c-0.3-1.1-1.5-6.7,2.9-12.2c4.4-5.3,11.1-6.7,12.5-7c0.9-3.8,4.7-6.7,9.3-7c5.2-0.4,10.2,2.6,11.3,7c7.6-2.2,15.9-0.3,20.7,4.4
		c4,4,4.9,9.6,2.3,14.5c3.1-4.1,9-6.2,14.8-5.3c6,0.9,10.7,4.7,11.6,9.6c0.3-0.1,6.5-2.8,12.5,0c4.3,2,6.7,5.9,6,9.9
		c2.3-2.5,6.1-3.3,8.8-2.2s3.9,4.5,3,6.9c-3.3,9.3-38.7,10.4-38.7,10.4s-22.5,0.9-45.9,0.7c-22.2-0.1-33.3-1-38-1.5
		C544.4,342.8,538.1,342,533.5,341.3L533.5,341.3z"/>
	
		<linearGradient id="SVGID_9_" gradientUnits="userSpaceOnUse" x1="532.9846" y1="318.6421" x2="532.9846" y2="242.5721" gradientTransform="matrix(1 0 0 -1 0 612)">
		<stop  offset="0" style="stop-color:#4787A1"/>
		<stop  offset="0.9949" style="stop-color:#2F1753"/>
	</linearGradient>
	<path class="st10" d="M437,364.4c-11.4-1.9-18.7-10.2-16.6-18.4c2.2-8.5,13.7-14.2,25.5-12.6c-0.7-5.4,4.4-10.4,11.6-11.5
		s14.4,1.9,16.9,7c-0.4-1.5-2.2-9.1,4.4-16.5c6.4-7.2,16.4-9.1,18.5-9.5c1.3-5.2,7-9,13.7-9.5c7.7-0.5,15.1,3.5,16.7,9.5
		c11.2-2.9,23.5-0.5,30.5,6c5.9,5.5,7.2,13.1,3.4,19.8c4.6-5.5,13.3-8.4,21.9-7.2c8.9,1.2,15.8,6.4,17.1,13c0.4-0.2,9.6-3.8,18.5,0
		c6.3,2.7,9.8,8,8.9,13.5c3.4-3.4,9.1-4.5,13-3c4.1,1.5,5.8,6.1,4.5,9.4c-4.9,12.6-57.1,14.1-57.2,14.1c0,0-33.1,1.2-67.7,1
		c-32.7-0.2-49.1-1.4-56.1-2C453.1,366.4,443.7,365.3,437,364.4L437,364.4z"/>
	
		<linearGradient id="SVGID_10_" gradientUnits="userSpaceOnUse" x1="-2688.2" y1="324" x2="-2688.2" y2="123.6" gradientTransform="matrix(-1 0 0 -1 -2292.2 612)">
		<stop  offset="5.108200e-03" style="stop-color:#412267"/>
		<stop  offset="1" style="stop-color:#160B45"/>
	</linearGradient>
	<path class="st11" d="M792,379.6c-3.6-4.3-7.2-8.5-10.7-12.8c0.1,1,1,12.2-5.1,20.1c-5.5,7.1-12.4,5.9-13.4,5.7
		c-2.1,0.2-14.7,1.3-23.7-11.5c-3.5-5-5.3-10.5-6.2-14.3l-16.5,12.9c-14.4-18.8-33.5-40.3-57.6-60.2c-16.6-13.6-32.3-23.8-46.3-31.5
		c-5,12.7-18.5,42.4-45.2,63c-25.4,19.6-49.2,20.5-59.6,20.1c-3.1-1.1-9.1-3.9-14.4-11.5c-2.5-3.5-4.1-7.1-5.1-10
		c-8.4,12.9-22.1,31-42.2,45.8c-24,17.8-75.9,27.1-82.3,20.1c-8.6-9.6-8.3-24.2-8.2-25.8c-8.2,10-16.5,20.1-24.7,30.1
		c-11.7-13.1-27.4-28.2-47.3-41.5c-18-12.1-34.7-19.6-48.3-24.3c-11.8,12.5-48.1,48.7-91.5,55.9c-19.7,3.3-42.1,10.5-52.4-7.2
		c-8.1-13.7-5-34.9-3.1-44.4c-15.9,11.6-33,26.1-50.4,44.4c-5.4,5.7-10.6,11.5-15.4,17.2c-5.9-1.8-22-12.7-22-12.7L0,488.4
		c0,0,525.6-2.8,792-4.2"/>
	
		<linearGradient id="SVGID_11_" gradientUnits="userSpaceOnUse" x1="396.05" y1="285" x2="396.05" y2="145" gradientTransform="matrix(1 0 0 -1 0 612)">
		<stop  offset="0" style="stop-color:#372871"/>
		<stop  offset="1" style="stop-color:#190020"/>
	</linearGradient>
	<path class="st12" d="M0,392.3c4-3.4,8-6.9,12.1-10.3c-0.1,0.7-1,8.5,5,14c5.4,4.9,12.1,4.1,13,4c2.1,0.2,14.3,0.9,23-8
		c3.4-3.5,5.1-7.3,6-10c5.3,3,10.7,6,16,9c14-13.2,32.6-28.2,56-42c16.1-9.5,31.4-16.6,45-22c4.9,8.9,18,29.6,44,44
		c24.7,13.7,47.8,14.3,58,14c3-0.8,8.9-2.7,14-8c2.4-2.5,4-5,5-7c8.1,9,21.5,21.6,41,32c23.3,12.4,73.8,19,80,14
		c8.3-6.7,8-16.9,8-18l24,21c11.4-9.1,26.7-19.7,46-29c17.5-8.5,33.7-13.7,47-17c11.5,8.7,46.8,34,89,39c19.2,2.3,40.9,7.4,51-5
		c7.8-9.6,4.8-24.3,3-31c15.5,8.1,32.1,18.2,49,31c5.3,4,10.3,8,15,12c5.8-1.3,13.5-3.7,21.4-8.9c8.4-5.5,20.5-10.2,20.6-10.4V467
		L0,464"/>
	
		<linearGradient id="SVGID_12_" gradientUnits="userSpaceOnUse" x1="396" y1="219.0693" x2="396" y2="56.4999" gradientTransform="matrix(1 0 0 -1 0 612)">
		<stop  offset="0" style="stop-color:#441854"/>
		<stop  offset="0.1641" style="stop-color:#31083B"/>
		<stop  offset="0.2881" style="stop-color:#220028"/>
		<stop  offset="0.3518" style="stop-color:#1A0020"/>
		<stop  offset="0.355" style="stop-color:#1A0020"/>
		<stop  offset="0.449" style="stop-color:#180424"/>
		<stop  offset="0.5449" style="stop-color:#161127"/>
		<stop  offset="0.6425" style="stop-color:#15182A"/>
		<stop  offset="0.7426" style="stop-color:#141B2B"/>
		<stop  offset="0.8493" style="stop-color:#131C2B"/>
	</linearGradient>
	<path class="st13" d="M0.5,418c19.2-8.6,43.3-17,71.5-21.6c80.5-13.2,135.5,14,225,35.7c42.3,10.2,100.2,15.8,216,27
		c123,11.9,279,20.6,279,20.6v38.4c0,0-779.3,34.2-792,37.4C0.5,418,0,555.4,0.5,418L0.5,418z"/>
	
		<linearGradient id="SVGID_13_" gradientUnits="userSpaceOnUse" x1="396.25" y1="166.1143" x2="396.25" y2="33.3717" gradientTransform="matrix(1 0 0 -1 0 612)">
		<stop  offset="0" style="stop-color:#441854"/>
		<stop  offset="0.1641" style="stop-color:#31083B"/>
		<stop  offset="0.2881" style="stop-color:#220028"/>
		<stop  offset="0.3518" style="stop-color:#1A0020"/>
		<stop  offset="0.355" style="stop-color:#1A0020"/>
		<stop  offset="0.449" style="stop-color:#180424"/>
		<stop  offset="0.5449" style="stop-color:#161127"/>
		<stop  offset="0.6425" style="stop-color:#15182A"/>
		<stop  offset="0.7426" style="stop-color:#141B2B"/>
		<stop  offset="0.8493" style="stop-color:#131C2B"/>
	</linearGradient>
	<path class="st14" d="M0.5,452.9c69.9,20.9,191.2,53.6,334,24.1c15.1-3.1,9.9-2.6,37-9C503,436.9,792,447.7,792,447.7
		s0,96.5,0,95.8S254.7,647.4,1.7,498.9c-1.6-33.2-0.2-3.2-1-39.9C0.6,457.2,0.6,455.1,0.5,452.9L0.5,452.9z"/>
	
		<linearGradient id="SVGID_14_" gradientUnits="userSpaceOnUse" x1="397" y1="111.3" x2="397" y2="-9.997559e-02" gradientTransform="matrix(1 0 0 -1 0 612)">
		<stop  offset="0" style="stop-color:#441854"/>
		<stop  offset="0.1641" style="stop-color:#31083B"/>
		<stop  offset="0.2881" style="stop-color:#220028"/>
		<stop  offset="0.3518" style="stop-color:#1A0020"/>
		<stop  offset="0.355" style="stop-color:#1A0020"/>
		<stop  offset="0.449" style="stop-color:#180424"/>
		<stop  offset="0.5449" style="stop-color:#161127"/>
		<stop  offset="0.6425" style="stop-color:#15182A"/>
		<stop  offset="0.7426" style="stop-color:#141B2B"/>
		<stop  offset="0.8493" style="stop-color:#131C2B"/>
	</linearGradient>
	<path class="st15" d="M794,500.7c-117,14-249,23.5-393.7,23.6c-147.3,0.1-281.6-9.4-400.3-23.6v111.4h794V500.7L794,500.7z"/>
</g>
</svg>
