<?xml version="1.0" encoding="utf-8"?>
<!-- Generator: Adobe Illustrator 24.0.2, SVG Export Plug-In . SVG Version: 6.00 Build 0)  -->
<svg version="1.1" id="Layer_1" xmlns="http://www.w3.org/2000/svg" xmlns:xlink="http://www.w3.org/1999/xlink" x="0px" y="0px"
	 viewBox="0 0 6030.5 1160" style="enable-background:new 0 0 6030.5 1160;" xml:space="preserve">
<style type="text/css">
	.st0{fill:#282828;}
	.st1{fill:url(#SVGID_1_);}
	.st2{fill:#606060;}
	.st3{fill:#444343;}
	.st4{fill:#0080FF;}
	.st5{fill:#FFFFFF;}
	.st6{fill:url(#SVGID_2_);}
	.st7{opacity:0.3177;fill:url(#SVGID_3_);enable-background:new    ;}
	.st8{opacity:0.7572;fill:url(#SVGID_4_);enable-background:new    ;}
</style>
<g>
	<path class="st0" d="M1160,580c0,320.3-259.7,580-580,580S0,900.3,0,580S259.7,0,580,0S1160,259.7,1160,580z"/>
	
		<linearGradient id="SVGID_1_" gradientUnits="userSpaceOnUse" x1="644.5355" y1="-140.5961" x2="930.8946" y2="170.2386" gradientTransform="matrix(2.7878 0 0 2.7878 -1840.2257 295.3624)">
		<stop  offset="0" style="stop-color:#FFFFFF"/>
		<stop  offset="1" style="stop-color:#FFFFFF;stop-opacity:0"/>
	</linearGradient>
	<path class="st1" d="M1151.7,580.1c0,315.7-256,571.7-571.7,571.7S8.3,895.8,8.3,580.1S264.3,8.4,580,8.4
		S1151.7,264.3,1151.7,580.1z"/>
	<g>
		<circle class="st2" cx="580" cy="580" r="520.4"/>
	</g>
	<g>
		<circle class="st3" cx="580" cy="580" r="499.5"/>
	</g>
</g>
<path class="st4" d="M1049.5,580c0,259.3-210.2,469.5-469.5,469.5S110.5,839.3,110.5,580S320.7,110.5,580,110.5
	S1049.5,320.7,1049.5,580z"/>
<path class="st5" d="M429.2,545.9c-8.1,0-14.5,0-20.9,0c-19.4,0-38.7,0.1-58,0c-21.9-0.2-40.9-14-47.6-34.4
	c-10.4-31.8,12.5-64.4,46.3-65.7c1.3-0.1,2.8,0,4.1,0c73.7,0,147.4,0,221.1,0c3.2,0,6.5,0.2,9.5,0.9c11.2,2.5,19.3,12,19.9,23.5
	c0.1,1.1,0.1,2.3,0.1,3.4c0,75.3,0.2,150.6-0.1,225.9c-0.1,21.7-10.5,37.5-30.3,46.2c-32.6,14.3-69.1-9.4-69.5-45.1
	c-0.2-26.1,0-52-0.1-78.1c0-2.2,0-4.5,0-7.8c-2.2,1.7-3.4,2.5-4.5,3.5c-25.9,25.9-51.9,51.6-77.6,77.8c-8.7,8.9-16.8,18.3-24.2,28.2
	c-20,26.5-10.1,51.3,7.1,67.4c12.2,11.5,26.6,18.8,43,22c3.3,0.7,6.9,0.7,10.3,0.7c57.2,0,114.2,0.7,171.4-0.1
	c86.7-1.1,151.8-40.5,195.8-114.7c21.7-36.5,31.2-76.9,28.2-119.2c-5.9-85.4-48.2-148.1-123.3-188.5
	c-32.4-17.5-67.7-24.9-104.4-24.9c-95.8-0.1-191.6-0.1-287.5,0c-15.2,0-28.1-4.8-38.3-15.9c-14.1-15.6-17.6-34-9.4-53.2
	c8.1-19.3,23.4-30.4,44.6-30.5c100.2-0.3,200.4-1.6,300.6,0.3c98.7,1.9,180.2,42.9,243.9,117.9c38.2,44.8,61.7,96.9,70.7,155.1
	c26.1,170.5-80.9,319.9-234.3,361.9c-28.1,7.7-56.8,11.5-86,11.4c-56.7-0.1-113.4,0-169.9,0c-49.2,0-90.9-18.6-126.2-52.1
	c-24.3-23-39.2-51.4-45.6-84.2c-4.3-21.7-0.9-42.6,6.9-63c8.6-22.6,21.4-42.7,35.7-62c16.1-21.7,34.2-41.6,53.1-60.9
	c13.1-13.3,26.3-26.4,39.6-39.6C425,550.5,426.4,548.8,429.2,545.9z"/>
<radialGradient id="SVGID_2_" cx="1101.8915" cy="454.4949" r="53.036" gradientTransform="matrix(-5.0532 -5.0532 6.0905 -6.0905 3642.218 9282.1543)" gradientUnits="userSpaceOnUse">
	<stop  offset="0" style="stop-color:#FFFFFF;stop-opacity:0.4082"/>
	<stop  offset="1" style="stop-color:#FFFFFF;stop-opacity:0"/>
</radialGradient>
<path class="st6" d="M1035.3,597.2c0,249.5-202.2,451.7-451.7,451.7S131.8,846.7,131.8,597.2S334,145.5,583.5,145.5
	S1035.3,347.8,1035.3,597.2z"/>
<linearGradient id="SVGID_3_" gradientUnits="userSpaceOnUse" x1="777.5485" y1="398.5626" x2="943.5795" y2="591.1959" gradientTransform="matrix(2.9052 0 0 2.9052 -2044.444 -1013.585)">
	<stop  offset="0" style="stop-color:#FFFFFF"/>
	<stop  offset="1" style="stop-color:#FFFFFF;stop-opacity:0"/>
</linearGradient>
<path class="st7" d="M572.1,130.2C422.4,133.6,278,212.9,197.7,352c-86.4,149.6-75.4,328.8,13,464.3
	c9.6-298,237.4-522.5,520.4-506.1c92.8,5.4,180.3,35.9,256.8,85.3c-36.6-83.7-99-156.7-184.2-205.9
	C730.8,147.5,650.6,128.5,572.1,130.2L572.1,130.2z"/>
<linearGradient id="SVGID_4_" gradientUnits="userSpaceOnUse" x1="5124.937" y1="-13765.584" x2="4884.3633" y2="-11733.6934" gradientTransform="matrix(6.822283e-02 0 0 6.822283e-02 281.0652 1060.7507)">
	<stop  offset="0" style="stop-color:#FFFFFF"/>
	<stop  offset="0" style="stop-color:#FFFFFF;stop-opacity:0.6667"/>
	<stop  offset="1" style="stop-color:#9DBBE1;stop-opacity:8.943000e-02"/>
</linearGradient>
<path class="st8" d="M579.8,110.5c-255.2,0-462.8,203.7-469.3,457.3c211.3,85,538.2,145.7,938.2-11.8
	C1036.2,307.9,831.1,110.5,579.8,110.5L579.8,110.5z"/>
<g>
	<path class="st5" d="M1489.2,915.3V264.5h225.1c209.9,0,260.3,112.1,260.3,314.4c0,206.1-45.6,336.3-260.3,336.3H1489.2z
		 M1714.4,356.7h-119.7v465.5h119.7c131.1,0,151-100.7,151-243.2S1845.5,356.7,1714.4,356.7z"/>
	<path class="st5" d="M2085.8,250.3h103.5v109.3h-103.5V250.3z M2085.8,440.3h103.5v475h-103.5V440.3z"/>
	<path class="st5" d="M2644.4,538.1c0,0-112.1-15.2-169.1-15.2s-82.6,13.3-82.6,52.2c0,31.4,20,39.9,113,56
		c114,20,154.8,48.5,154.8,143.4c0,111.2-70.3,151.1-188.1,151.1c-65.5,0-175.8-20.9-175.8-20.9l3.8-86.5c0,0,114,15.2,162.4,15.2
		c68.4,0,95-14.3,95-56c0-33.3-16.2-43.7-110.2-58.9C2343.2,701.5,2290,678.7,2290,578c0-107.3,83.6-147.2,177.6-147.2
		c69.3,0,178.6,20.9,178.6,20.9L2644.4,538.1z"/>
	<path class="st5" d="M2760.3,915.3V242.7h103.5V465c0,0,70.3-35.1,130.2-35.1c132,0,164.3,75,164.3,230.8v254.6h-103.5V663.5
		c0-95-11.4-141.6-84.5-141.6c-52.3,0-106.4,20.9-106.4,20.9v372.4H2760.3z"/>
	<path class="st5" d="M3630.5,803.2c1.9,28.5,14.3,39.9,41.8,43.7l-2.9,78.9c-58,0-91.2-7.6-126.3-35.2c0,0-76,35.2-152.9,35.2
		c-94,0-141.5-52.3-141.5-151.1c0-100.7,55.1-134.9,156.8-143.4l122.5-10.4v-34.2c0-52.3-22.8-68.4-69.3-68.4
		c-63.6,0-178.6,9.5-178.6,9.5l-3.8-73.1c0,0,103.5-24.7,190.9-24.7c115.9,0,163.4,48.4,163.4,156.7V803.2z M3417.7,704.4
		c-43.7,3.8-65.5,24.7-65.5,67.4s18,69.3,58,69.3c54.1,0,117.8-20.9,117.8-20.9V693.9L3417.7,704.4z"/>
	<path class="st5" d="M4184.3,643.6l-96.9,6.7v265H3982V264.5h105.4v293.5l96.9-7.6l133-285.9H4438l-160.5,326.8l167.2,323.9h-122.5
		L4184.3,643.6z"/>
	<path class="st5" d="M4523.5,250.3H4627v109.3h-103.5V250.3z M4523.5,440.3H4627v475h-103.5V440.3z"/>
	<path class="st5" d="M4752.4,440.3H4855v57c0,0,80.7-52.3,161.5-67.4v103.5c-86.4,17.1-160.5,50.3-160.5,50.3v331.5h-103.5V440.3z"
		/>
	<path class="st5" d="M5446.8,803.2c1.9,28.5,14.3,39.9,41.8,43.7l-2.9,78.9c-58,0-91.2-7.6-126.3-35.2c0,0-76,35.2-152.9,35.2
		c-94,0-141.5-52.3-141.5-151.1c0-100.7,55.1-134.9,156.8-143.4l122.5-10.4v-34.2c0-52.3-22.8-68.4-69.3-68.4
		c-63.6,0-178.6,9.5-178.6,9.5l-3.8-73.1c0,0,103.5-24.7,190.9-24.7c115.9,0,163.4,48.4,163.4,156.7V803.2z M5234,704.4
		c-43.7,3.8-65.5,24.7-65.5,67.4s18,69.3,58,69.3c54.1,0,117.8-20.9,117.8-20.9V693.9L5234,704.4z"/>
	<path class="st5" d="M5577,915.3v-475h102.6v29.5c0,0,69.3-39.9,131.1-39.9c132,0,164.3,75,164.3,230.8v254.6h-102.6V663.5
		c0-95-12.3-141.6-84.5-141.6c-55.1,0-107.3,24.7-107.3,24.7v368.6H5577z"/>
</g>
</svg>
