<svg id="Layer_1" data-name="Layer 1" xmlns="http://www.w3.org/2000/svg" xmlns:xlink="http://www.w3.org/1999/xlink" viewBox="0 0 452 452"><defs><style>.cls-1{fill:#282828;}.cls-2{fill:url(#linear-gradient);}.cls-3{fill:#606060;}.cls-4{fill:#444343;}.cls-5{fill:#0080ff;}.cls-6{fill:#00bf10;}.cls-7{fill:#bf1500;}.cls-8{fill:#f4ff0a;}.cls-9{fill:#0025bf;}.cls-10{fill:#dfaf00;}.cls-11{fill:url(#radial-gradient);}.cls-12{opacity:0.32;isolation:isolate;fill:url(#linear-gradient-2);}</style><linearGradient id="linear-gradient" x1="539.45" y1="-200.28" x2="651.03" y2="-79.16" gradientTransform="translate(-1412.61 701.89) scale(2.79)" gradientUnits="userSpaceOnUse"><stop offset="0" stop-color="#fff"/><stop offset="1" stop-color="#fff" stop-opacity="0"/></linearGradient><radialGradient id="radial-gradient" cx="895.28" cy="227.14" r="21.12" gradientTransform="translate(3509.3 6329.83) rotate(-135) scale(6.99 8.43)" gradientUnits="userSpaceOnUse"><stop offset="0" stop-color="#fff" stop-opacity="0.41"/><stop offset="1" stop-color="#fff" stop-opacity="0"/></radialGradient><linearGradient id="linear-gradient-2" x1="612.86" y1="281.49" x2="677.56" y2="356.55" gradientTransform="translate(-1588.75 -580.36) scale(2.91)" xlink:href="#linear-gradient"/></defs><title>Games(Button Only)</title><path class="cls-1" d="M560.17,407.19c0,124.81-101.2,226-226,226s-226-101.19-226-226,101.19-226,226-226S560.17,282.38,560.17,407.19Z" transform="translate(-108.17 -181.19)"/><path class="cls-2" d="M556.93,407.23c0,123-99.75,222.76-222.76,222.76S111.4,530.24,111.4,407.23s99.75-222.77,222.77-222.77S556.93,284.18,556.93,407.23Z" transform="translate(-108.17 -181.19)"/><circle class="cls-3" cx="226" cy="226" r="202.78"/><circle class="cls-4" cx="226" cy="226" r="194.63"/><path class="cls-5" d="M517.11,407.2a182.94,182.94,0,0,1-365.88,0c0-101,81.91-182.94,182.94-182.94A182.94,182.94,0,0,1,517.11,407.2Z" transform="translate(-108.17 -181.19)"/><path d="M190,434.31c.56-5.2,1-10.42,1.7-15.6,3.6-26.56,9.31-52.54,21.79-76.55a85.18,85.18,0,0,1,18.69-24.74c10.39-9.25,22.69-13.36,36.28-11.46,12.82,1.78,25.43,5,38.14,7.62,7,1.42,13.9,2.91,20.89,4.13,8.78,1.53,17.31-.58,25.79-2.44,12.68-2.77,25.24-6.07,38-8.64,23.4-4.74,41.48,3.71,55.15,22.93,9.58,13.48,15.45,28.59,20.08,44.26,7.14,24.21,11.3,48.88,10.9,74.19-.14,9.11-1,18.16-4.2,26.81-6.06,16.51-18.46,22.85-35.34,18.15-10.46-2.91-19.47-8.62-28-15a190.66,190.66,0,0,1-19.27-15.87,64.73,64.73,0,0,0-33.33-17.33c-20-4-39.77-3.38-59.13,3.56A50.67,50.67,0,0,0,280.46,459c-10.36,9.64-21.2,18.7-33.37,26-6.75,4-13.71,7.69-21.61,9-14.37,2.36-25.68-3.86-30.57-17.63-2.2-6.19-2.95-12.9-4.33-19.38-.25-1.18-.39-2.38-.58-3.57Zm13.49,9.33c0,3.37-.18,6.76,0,10.12.45,6.83,1.25,13.65,4.55,19.83s8.22,8.33,15,7c6.35-1.2,12.05-3.95,17.52-7.25,10.86-6.57,20.51-14.73,29.79-23.33a66.41,66.41,0,0,1,21.79-13.52c21.95-8.33,44.45-9.46,67.3-4.7,14.46,3,27.24,9.21,38.12,19.59a242,242,0,0,0,23.27,18.92c6.77,5,14.11,9.21,22.6,10.78,8.27,1.53,13.25-1.1,16.55-8.85a55.6,55.6,0,0,0,4-19.72c1.07-26.6-3.5-52.42-11-77.79-4.13-13.89-9.72-27.14-18.6-38.76-9.72-12.73-22.45-18.81-38.42-16.45-9.59,1.41-19,3.91-28.52,5.83-9.24,1.87-18.46,3.95-27.77,5.33-11,1.64-21.74-1.26-32.41-3.6-11.77-2.57-23.42-5.75-35.29-7.68-13.58-2.22-25.5,1.9-35.06,12.15a77,77,0,0,0-13.69,20.79C210,381.34,204.2,412,203.49,443.64Z" transform="translate(-108.17 -181.19)"/><path d="M246.11,401.93c-9.85-1.57-16.37-7-18.58-16.88a20.46,20.46,0,0,1,15.83-24.34c2.3-.46,3.07-1.33,3.58-3.62a20.79,20.79,0,0,1,40.61.92c.3,1.51.75,2.19,2.3,2.53,10.55,2.32,17.22,10.81,16.95,21.37-.26,9.89-7.72,18.07-18.06,19.81a5.52,5.52,0,0,0-.54.16c-4.45,13.37-11,19.11-21.62,18.92C256.51,420.61,250,414.57,246.11,401.93Zm47.8-21.05a7.13,7.13,0,0,0-6.94-7.33c-1.59-.1-3.18,0-4.77-.06-4.8-.1-7.38-2.72-7.52-7.51a34,34,0,0,0-.45-6.4,7,7,0,0,0-7.74-5.43,7.25,7.25,0,0,0-6.83,6.93c-.12,1.77,0,3.56-.06,5.34a6.86,6.86,0,0,1-6.85,7.05c-1.77.1-3.55,0-5.32.08a7.3,7.3,0,0,0-.13,14.58c1.76.13,3.55,0,5.32.07a6.78,6.78,0,0,1,7,6.89c.08,1.68,0,3.37.05,5.05.17,4.21,3,7.11,7,7.3a7.18,7.18,0,0,0,7.94-6.61c.2-1.66.07-3.36.12-5.05.12-4.53,2.6-7,7.17-7.21,1.86-.07,3.75,0,5.59-.19A7.06,7.06,0,0,0,293.91,380.88Z" transform="translate(-108.17 -181.19)"/><path class="cls-6" d="M383.56,355.15a12.46,12.46,0,1,1,12,12.86A12.32,12.32,0,0,1,383.56,355.15Z" transform="translate(-108.17 -181.19)"/><path class="cls-7" d="M383.12,381.15a12.54,12.54,0,1,1-12.3-12.67A12.58,12.58,0,0,1,383.12,381.15Z" transform="translate(-108.17 -181.19)"/><path class="cls-8" d="M421.45,368.48a12.53,12.53,0,1,1-12.52,12.42A12.49,12.49,0,0,1,421.45,368.48Z" transform="translate(-108.17 -181.19)"/><path class="cls-9" d="M383.55,406.23A12.46,12.46,0,1,1,396,419.05,12.5,12.5,0,0,1,383.55,406.23Z" transform="translate(-108.17 -181.19)"/><path class="cls-10" d="M293.91,380.88a7.06,7.06,0,0,1-6.45,7.5c-1.84.23-3.73.12-5.59.19-4.57.18-7.05,2.68-7.17,7.21-.05,1.69.08,3.39-.12,5.05a7.18,7.18,0,0,1-7.94,6.61c-4-.19-6.83-3.09-7-7.3-.07-1.68,0-3.37-.05-5.05a6.78,6.78,0,0,0-7-6.89c-1.77-.06-3.56.06-5.32-.07a7.3,7.3,0,0,1,.13-14.58c1.77-.11,3.55,0,5.32-.08a6.86,6.86,0,0,0,6.85-7.05c.06-1.78-.06-3.57.06-5.34a7.25,7.25,0,0,1,6.83-6.93,7,7,0,0,1,7.74,5.43,34,34,0,0,1,.45,6.4c.14,4.79,2.72,7.41,7.52,7.51,1.59,0,3.18,0,4.77.06A7.13,7.13,0,0,1,293.91,380.88Z" transform="translate(-108.17 -181.19)"/><path class="cls-11" d="M511.58,413.89a176,176,0,0,1-176,176c-97.22,0-176-78.79-176-176a176,176,0,0,1,176-176C432.75,237.88,511.58,316.71,511.58,413.89Z" transform="translate(-108.17 -181.19)"/><path class="cls-12" d="M331.09,231.92A172.8,172.8,0,0,0,190.27,499.26c3.74-116.11,92.5-203.59,202.78-197.2,36.16,2.1,70.25,14,100.06,33.24a172.77,172.77,0,0,0-162-103.38Z" transform="translate(-108.17 -181.19)"/></svg>