<svg id="Layer_1" data-name="Layer 1" xmlns="http://www.w3.org/2000/svg" xmlns:xlink="http://www.w3.org/1999/xlink" viewBox="0 0 452 452"><defs><style>.cls-1{fill:#282828;}.cls-2{fill:url(#linear-gradient);}.cls-3{fill:#606060;}.cls-4{fill:#444343;}.cls-5{fill:#0080ff;}.cls-6{fill:#f4ff0a;}.cls-7{fill:#007f3d;}.cls-8{fill:#bf1500;}.cls-9{fill:#dfaf00;}.cls-10{fill:url(#radial-gradient);}.cls-11{opacity:0.32;isolation:isolate;fill:url(#linear-gradient-2);}</style><linearGradient id="linear-gradient" x1="539.45" y1="-200.28" x2="651.03" y2="-79.16" gradientTransform="translate(-1412.61 701.89) scale(2.79)" gradientUnits="userSpaceOnUse"><stop offset="0" stop-color="#fff"/><stop offset="1" stop-color="#fff" stop-opacity="0"/></linearGradient><radialGradient id="radial-gradient" cx="895.28" cy="227.14" r="21.12" gradientTransform="translate(3509.3 6329.83) rotate(-135) scale(6.99 8.43)" gradientUnits="userSpaceOnUse"><stop offset="0" stop-color="#fff" stop-opacity="0.41"/><stop offset="1" stop-color="#fff" stop-opacity="0"/></radialGradient><linearGradient id="linear-gradient-2" x1="612.86" y1="281.49" x2="677.56" y2="356.55" gradientTransform="translate(-1588.75 -580.36) scale(2.91)" xlink:href="#linear-gradient"/></defs><title>IQ(Button Only)</title><path class="cls-1" d="M560.17,407.19c0,124.81-101.2,226-226,226s-226-101.19-226-226,101.19-226,226-226S560.17,282.38,560.17,407.19Z" transform="translate(-108.17 -181.19)"/><path class="cls-2" d="M556.93,407.23c0,123-99.75,222.76-222.76,222.76S111.4,530.24,111.4,407.23s99.75-222.77,222.77-222.77S556.93,284.18,556.93,407.23Z" transform="translate(-108.17 -181.19)"/><circle class="cls-3" cx="226" cy="226" r="202.78"/><circle class="cls-4" cx="226" cy="226" r="194.63"/><path class="cls-5" d="M517.11,407.2a182.94,182.94,0,0,1-365.88,0c0-101,81.91-182.94,182.94-182.94A182.94,182.94,0,0,1,517.11,407.2Z" transform="translate(-108.17 -181.19)"/><path d="M364.68,490.71c0,5.26,0,10.56.06,15.86a2.25,2.25,0,0,0,1.28,1.5c7.42,3.06,10.94,8.63,10.83,16.6,0,2.18,0,4.35,0,6.64H344.76c-1.26-10.24-.26-17.87,8.76-22.32,2.66-1.31,3.19-2.72,3.09-5.28-.17-4.3,0-8.6,0-13.06a29.34,29.34,0,0,1-20.24-13.39c-5,7.27-11.51,11.91-20.32,13.32,0,5.43,0,10.74.06,16,0,.51.75,1.23,1.31,1.46,7.31,3,10.85,8.51,10.8,16.38,0,2.2,0,4.39,0,6.78H296.05c-1.25-10.7-.15-19,11.69-23.68V490.77a66.31,66.31,0,0,1-6.7-2.16,27.74,27.74,0,0,1-16.73-20c-.4-1.71-.92-2.42-2.75-2.83a28.22,28.22,0,0,1-16.1-45.24,2.66,2.66,0,0,0,.44-3.15c-6.71-15.74.22-32.16,16.13-38.39,1.75-.68,3.35-5,2.38-7.15-4.21-9.22-5.31-18.95-4.88-28.93.07-1.8-.26-2.82-2.2-3.54-4.33-1.61-7.16-4.9-9-9.14a2.77,2.77,0,0,0-1.8-1.53c-2.34-.18-4.7-.07-7.35-.07,0,2.6,0,5,0,7.44-.06,9.62-7,16.86-16.18,16.88s-16.2-7.22-16.27-16.79c0-2.43,0-4.85,0-7.57-5.16.36-9.87-.15-13.32-4.28a12,12,0,0,1-2.89-8.16c.15-7.42,4.85-11,16.21-12,0-2.38,0-4.8,0-7.21,0-9.63,7-16.89,16.13-16.93s16.27,7.23,16.32,17c0,2.35,0,4.7,0,7.33,2.62,0,5,.09,7.46-.07a2.51,2.51,0,0,0,1.65-1.41c2.85-6.73,7.84-10.47,15.19-10.65,6.76-.17,12.29,3.86,15.26,10.57a2.86,2.86,0,0,0,2.07,1.49q35.49.12,71,0a2.65,2.65,0,0,0,1.93-1.36c2.84-6.74,7.81-10.64,15.15-10.67s12.51,3.86,15.37,10.72a2.46,2.46,0,0,0,1.72,1.3c2.34.16,4.7.07,7.35.07,0-2.68,0-5.19,0-7.69.07-9.4,7.09-16.62,16.16-16.64s16.17,7.16,16.28,16.53c0,2.51,0,5,0,7.85,5.25-.4,10,.17,13.47,4.45a11.92,11.92,0,0,1,2.74,8c-.16,7.43-4.84,11-16.21,12.05,0,2.38,0,4.79,0,7.21-.06,9.64-7,16.89-16.14,16.92s-16.26-7.24-16.31-17c0-2.35,0-4.7,0-7.32-2.63,0-5.06-.09-7.47.07a2.5,2.5,0,0,0-1.65,1.4,15.93,15.93,0,0,1-9.56,9.53c-1.5.54-1.64,1.35-1.61,2.63.14,7.19.11,14.38-2,21.35-.76,2.5-1.73,4.93-2.54,7.41a6.91,6.91,0,0,0-.52,2.65c.22,2.41.93,4,3.93,4.69a28.06,28.06,0,0,1,15.34,44.68,3.2,3.2,0,0,0-.42,3.82,28.21,28.21,0,0,1-15.8,37.79,4.2,4.2,0,0,0-2.38,2.37c-2.71,12.75-10.4,20.47-23.05,23.34C365.38,490.45,365.16,490.55,364.68,490.71ZM332.42,381.26c-1.89-12.77-9.65-20.28-20.75-20.13a19.67,19.67,0,0,0-13.16,5.12c-5.55,4.93-7.31,11.33-6.81,18.73-6.94,1.11-13.08,3.49-17,9.61a19.51,19.51,0,0,0-1.65,19c8.73-3.55,11.1-4.11,14.33-3.46v7.67c-12.42,1.23-20.49,9.89-20.07,21.33.35,9.31,8.39,18.37,16.49,18.6,4.51-15.12,16.62-25.21,27.93-23.28v7.68c-12.25,1.25-20.26,9.61-20.09,20.79a20.38,20.38,0,0,0,18.73,19.81c11.51.83,20-6.84,22-20.1h7.7c2.05,13,9.8,20.39,21,20.13a19.72,19.72,0,0,0,13.11-5.27c5.41-4.93,7.12-11.27,6.63-18.57,6.93-1.13,13.08-3.48,17-9.61a19.64,19.64,0,0,0,1.61-19.1c-4.64,2.37-9.24,4-14.28,3.83v-7.94c12.43-1.24,20.5-9.91,20-21.34-.36-9.32-8.44-18.42-16.49-18.58-4.53,15.12-16.78,25.32-27.91,23.27v-7.68c12.26-1.25,20.27-9.62,20.08-20.82a20.38,20.38,0,0,0-18.76-19.78c-11.53-.79-19.8,6.74-22,20.1Zm50.23-18.06c2.58-7.32,2.41-14.66,2.23-22,0-.51-1-1.2-1.63-1.47a16,16,0,0,1-9.21-9.23,2.41,2.41,0,0,0-2.72-1.87q-35.08.06-70.18,0a2.24,2.24,0,0,0-2.56,1.74c-1.19,3.35-3.2,6.59-6.49,7.75-4.57,1.61-4.95,4.64-4.49,8.51.08.67-.05,1.36,0,2,.54,4.79,1.1,9.59,1.65,14.38l.82.13c6.41-7.07,14.29-10.76,23.83-10.09s16.94,5.49,22.35,13.44C346.92,350.47,368.84,348,382.65,363.2ZM234.88,316.5q0,9.63,0,19.26c0,5.39,3.29,9.09,8.05,9.12s8.17-3.66,8.17-9q0-19.38,0-38.76c0-5.34-3.4-9-8.18-9s-8,3.71-8,9.13Q234.87,306.88,234.88,316.5Zm186.58,0c0,6.42,0,12.84,0,19.25,0,5.39,3.28,9.09,8,9.12s8.16-3.66,8.16-9q0-19.38,0-38.77c0-5.33-3.4-9-8.18-9s-8,3.71-8,9.13C421.45,303.67,421.46,310.09,421.46,316.51Zm-121.57,3.87h72.78v-7.8H299.89Zm-24.44-4c0,2.7-.05,5.41,0,8.11a8.09,8.09,0,1,0,16.18,0c.08-5.4.09-10.81,0-16.21a8.09,8.09,0,0,0-16.18,0C275.39,311,275.45,313.72,275.45,316.42Zm121.67.06c0-2.61,0-5.23,0-7.85a8.1,8.1,0,1,0-16.2-.09c-.06,5.32-.07,10.64,0,16a8.1,8.1,0,1,0,16.19.09C397.18,321.89,397.12,319.19,397.12,316.48ZM319.88,523.22a8,8,0,1,0-15.91,0Zm48.73,0c-.25-4.74-3.72-8.07-8.17-8a7.8,7.8,0,0,0-7.72,8ZM259.35,312.56v7.84h7.8v-7.84Zm153.82,7.89v-7.8h-7.79v7.8ZM226.6,320.4v-7.81c-5.57-.43-7.93.77-7.92,3.92S221.08,320.88,226.6,320.4ZM446,312.66v7.81c5.68.28,8-.93,7.88-4.06S451.28,312,446,312.66Z" transform="translate(-108.17 -181.19)"/><path class="cls-6" d="M234.88,316.5q0-9.62,0-19.25c0-5.42,3.26-9.09,8-9.13s8.17,3.66,8.18,9q0,19.38,0,38.76c0,5.34-3.39,9-8.17,9s-8-3.73-8.05-9.12Q234.87,326.13,234.88,316.5Z" transform="translate(-108.17 -181.19)"/><path class="cls-6" d="M421.46,316.51c0-6.42,0-12.84,0-19.26,0-5.42,3.25-9.09,8-9.13s8.18,3.66,8.18,9q0,19.38,0,38.77c0,5.34-3.38,9-8.16,9s-8-3.73-8-9.12C421.45,329.35,421.46,322.93,421.46,316.51Z" transform="translate(-108.17 -181.19)"/><path class="cls-7" d="M299.89,320.38v-7.8h72.78v7.8Z" transform="translate(-108.17 -181.19)"/><path class="cls-8" d="M275.45,316.42c0-2.7-.06-5.41,0-8.1a8.09,8.09,0,0,1,16.18,0c.09,5.4.08,10.81,0,16.21a8.09,8.09,0,1,1-16.18,0C275.4,321.83,275.45,319.12,275.45,316.42Z" transform="translate(-108.17 -181.19)"/><path class="cls-8" d="M397.12,316.48c0,2.71.06,5.41,0,8.11a8.1,8.1,0,1,1-16.19-.09c-.07-5.32-.06-10.64,0-16a8.1,8.1,0,1,1,16.2.09C397.16,311.25,397.12,313.87,397.12,316.48Z" transform="translate(-108.17 -181.19)"/><path class="cls-9" d="M319.88,523.22H304a8,8,0,1,1,15.91,0Z" transform="translate(-108.17 -181.19)"/><path class="cls-9" d="M368.61,523.2H352.72a7.8,7.8,0,0,1,7.72-8C364.89,515.13,368.36,518.46,368.61,523.2Z" transform="translate(-108.17 -181.19)"/><path class="cls-7" d="M259.35,312.56h7.8v7.84h-7.8Z" transform="translate(-108.17 -181.19)"/><path class="cls-7" d="M413.17,320.45h-7.79v-7.8h7.79Z" transform="translate(-108.17 -181.19)"/><path class="cls-7" d="M226.6,320.4c-5.52.48-7.91-.73-7.92-3.89s2.35-4.35,7.92-3.92Z" transform="translate(-108.17 -181.19)"/><path class="cls-7" d="M446,312.66c5.27-.64,7.8.57,7.88,3.75s-2.2,4.34-7.88,4.06Z" transform="translate(-108.17 -181.19)"/><path d="M360.7,393.45v-7.84c2.19-.57,3.92-1.7,3.93-4.21s-1.7-3.66-3.93-4.22v-7.62c5.73-.79,11.61,4.57,12.06,10.93A12.11,12.11,0,0,1,360.7,393.45Z" transform="translate(-108.17 -181.19)"/><path d="M311.83,466.66v7.83a12,12,0,0,1-12-11.53,12.1,12.1,0,0,1,12-12.54v7.84c-2.08.63-3.94,1.74-3.82,4.4C308,465.05,309.66,466.18,311.83,466.66Z" transform="translate(-108.17 -181.19)"/><path d="M320.17,397.5v-7.76c8.27-.73,16.16,7.09,16,15.84h-7.84C327.64,400.91,325,398.14,320.17,397.5Z" transform="translate(-108.17 -181.19)"/><path d="M291.75,401.52v-7.64c7-1,16.19,6.08,16,15.72h-7.88C299.29,404.92,296.56,402.16,291.75,401.52Z" transform="translate(-108.17 -181.19)"/><path d="M348.54,434v-7.86c4.77-.64,7.53-3.38,8.17-8.16h7.65C365.43,424.11,359.11,434.07,348.54,434Z" transform="translate(-108.17 -181.19)"/><path d="M328.26,454.25v-7.83c4.72-.68,7.49-3.3,8.13-8.14h7.76C344.89,446.54,337.08,454.43,328.26,454.25Z" transform="translate(-108.17 -181.19)"/><path d="M376.71,438.25a16,16,0,0,1-15.89,16v-7.87c4.59-.65,7.42-3.31,8-8.17Z" transform="translate(-108.17 -181.19)"/><path class="cls-10" d="M511.58,413.89a176,176,0,0,1-176,176c-97.22,0-176-78.79-176-176a176,176,0,0,1,176-176C432.75,237.88,511.58,316.71,511.58,413.89Z" transform="translate(-108.17 -181.19)"/><path class="cls-11" d="M331.09,231.92A172.8,172.8,0,0,0,190.27,499.26c3.74-116.11,92.5-203.59,202.78-197.2,36.16,2.1,70.25,14,100.06,33.24a172.77,172.77,0,0,0-162-103.38Z" transform="translate(-108.17 -181.19)"/></svg>