<svg id="Layer_1" data-name="Layer 1" xmlns="http://www.w3.org/2000/svg" xmlns:xlink="http://www.w3.org/1999/xlink" viewBox="0 0 452 452"><defs><style>.cls-1{fill:#282828;}.cls-2{fill:url(#linear-gradient);}.cls-3{fill:#606060;}.cls-4{fill:#444343;}.cls-5{fill:#0080ff;}.cls-6{fill:#00bf10;}.cls-7{fill:#007f3d;}.cls-8{fill:#bf1500;}.cls-9{fill:#f4ff0a;}.cls-10{fill:url(#radial-gradient);}.cls-11{opacity:0.32;isolation:isolate;fill:url(#linear-gradient-2);}</style><linearGradient id="linear-gradient" x1="539.45" y1="-200.28" x2="651.03" y2="-79.16" gradientTransform="translate(-1412.61 701.89) scale(2.79)" gradientUnits="userSpaceOnUse"><stop offset="0" stop-color="#fff"/><stop offset="1" stop-color="#fff" stop-opacity="0"/></linearGradient><radialGradient id="radial-gradient" cx="895.28" cy="227.14" r="21.12" gradientTransform="translate(3509.3 6329.83) rotate(-135) scale(6.99 8.43)" gradientUnits="userSpaceOnUse"><stop offset="0" stop-color="#fff" stop-opacity="0.41"/><stop offset="1" stop-color="#fff" stop-opacity="0"/></radialGradient><linearGradient id="linear-gradient-2" x1="612.86" y1="281.49" x2="677.56" y2="356.55" gradientTransform="translate(-1588.75 -580.36) scale(2.91)" xlink:href="#linear-gradient"/></defs><title>Mentoring(Button Only)</title><path class="cls-1" d="M560.17,407.19c0,124.81-101.2,226-226,226s-226-101.19-226-226,101.19-226,226-226S560.17,282.38,560.17,407.19Z" transform="translate(-108.17 -181.19)"/><path class="cls-2" d="M556.93,407.23c0,123-99.75,222.76-222.76,222.76S111.4,530.24,111.4,407.23s99.75-222.77,222.77-222.77S556.93,284.18,556.93,407.23Z" transform="translate(-108.17 -181.19)"/><circle class="cls-3" cx="226" cy="226" r="202.78"/><circle class="cls-4" cx="226" cy="226" r="194.63"/><path class="cls-5" d="M517.11,407.2a182.94,182.94,0,0,1-365.88,0c0-101,81.91-182.94,182.94-182.94A182.94,182.94,0,0,1,517.11,407.2Z" transform="translate(-108.17 -181.19)"/><rect class="cls-6" x="224.33" y="312.87" width="123.73" height="35.26"/><rect class="cls-7" x="102.48" y="221.43" width="86.66" height="126.71"/><path class="cls-8" d="M312,270a7.4,7.4,0,0,0,1.48,1.05c6.78,2.83,10.29,8.93,9,15.73A15.48,15.48,0,0,1,308,299.48a14.08,14.08,0,0,1-14-11,15.16,15.16,0,0,1,8.41-16.79c1-.49,2-1.11,2.94-1.67Z" transform="translate(-108.17 -181.19)"/><path d="M260.69,335.89c-3,5.09-5.66,9.76-8.39,14.41-6.93,11.77-13.93,23.5-20.75,35.34a43.38,43.38,0,0,0-3,7.74c-.49,1.46.14,2.47,1.78,2.65,1,.1,2,.14,3,.33,1.56.28,3.1.67,5.2,1.13-1.14,1.28-1.64,2.38-2.36,2.55a66.88,66.88,0,0,1-8.55,1.54,57.7,57.7,0,0,1-6.31,0l0,.64h60.38a7.25,7.25,0,0,0-2.41-1c-4.36-1.54-8.72-3.08-13-4.72-1.8-.68-2-1.74-1.23-3.73,4.06-10.45,7.88-21,11.67-31.53a3,3,0,0,0-.54-2.63A57,57,0,0,1,260.69,335.89Zm-39.38,66.37-5.43.07c-.12-1.09-.5-2-.26-2.77,8.15-24.51,16.29-49,24.68-73.45,1-2.81,3.23-5.29,5.25-7.6,6.11-7,12.45-13.74,18.58-20.69,1.24-1.41,2-3.25,3.22-5.34a17,17,0,0,0-11.43,3.1c-3.91,2.75-7.43,6.06-11.21,9a8,8,0,0,0-3.47,6.16c-.11,1.57-1.33,3.06-2,4.59l-.74-.21-.48-2.43c-2.12,3.15.64,6.19.11,9.29-3.53-1.77-5.3-7.11-4.11-11.81,3.93-15.53,13.78-25.19,29.22-29,7.79-1.93,15.67-2.79,23.24,1.14.44.23.89.48,1.34.7,2.15,1.07,3.3,2.25,3.05,5.2-.64,7.32,3.93,12,11.39,12.61a3,3,0,0,1,1.91.78q12.72,15.09,25.33,30.28a12.71,12.71,0,0,1,1.72,2.79,29.77,29.77,0,0,1,1.11,3.2c4.83.68,8.15,3.44,10,8.08a4,4,0,0,0,1.57,1.51,77,77,0,0,1,6.56,4.28c6.69,5.5,14.45,8.23,22.92,9.24,2.85.34,4.8,1.21,6.34,4.19,3.65,7.05,12.58,8.94,19.22,4.51a3.75,3.75,0,0,1,4.32-.19c10.52,5.16,17.51,13.83,23.47,23.48a51.46,51.46,0,0,1,3.95,8.19c.49,1.24.13,2.78.38,4.15a23.58,23.58,0,0,0,1.17,4c2.14,5.84.51,11.51-4.84,15.12.27-4,3.35-7.42,1-11.67v4l-.69.35c-.58-1-1.54-1.85-1.67-2.86a14.87,14.87,0,0,0-2.81-7.13c-2-2.79-3.18-6.16-5.12-9-2.94-4.31-6.14-8.45-9.41-12.51-.91-1.12-2.47-1.72-3.73-2.56l-.51.63c1,1.31,2,2.65,3,3.95a50.63,50.63,0,0,1,10.28,25.19c1.1,8.84,3.79,17.44,4.27,26.43A38.13,38.13,0,0,0,424.3,449a21.26,21.26,0,0,0,3.14,5.45c5.12,7.06,8.44,14.95,11.09,23.18a3.64,3.64,0,0,1-.82,3.88c-3.35,4-6.62,8.15-10.08,12.43l-1.89.12c-2.9-4.38-1-8.05,1.13-11.45,1.31-2.07,1-3.42-.21-5.34-5.58-8.95-11.1-17.94-16.38-27.06a36.25,36.25,0,0,1-5.2-16.25c-.23-3.91-2.6-6.91-5.72-9.16a3.72,3.72,0,0,0-2.59-.33,59.36,59.36,0,0,0-20.21,7.71A31.18,31.18,0,0,0,367.5,441c-4.05,5.67-8.73,10.9-13.22,16.26a21.46,21.46,0,0,1-3.35,2.56c-2.57-5.74-5.09-11.13-7.36-16.61-.66-1.59-.43-3.51,1.54-4.3s3.09.59,3.91,2c1.26,2.17,2.29,4.47,3.54,7,.33-.57.68-1.06.94-1.6,2.69-5.54,5.45-11.05,8-16.65,5.31-11.6,14.61-17.25,27-18.44l3.21-.3c-1.5-6.87-3.88-13.22-8.08-18.54-6.47-8.21-13.43-15.89-22.43-21.7-7.91-5.1-15.1-11.31-22.63-17-.92-.7-2-1.23-2.94-1.87-1.6-1.06-3.7-1.8-4.68-3.28-5.14-7.72-12.92-12.76-19.12-19.38-4.85-5.17-9.94-10.11-15-15.09a3.13,3.13,0,0,0-2.28-1c-6.2,1.2-12.05,3.29-17,7.38A14.41,14.41,0,0,0,276,322c-2.89,3.24-2.86,3.37-.08,6.53a92.67,92.67,0,0,1,15.75,23.74c2.27,5.13,2.61,9.74-.7,14.73-5.36,8.08-10.21,16.49-15.28,24.77-.25.41-.49.83-.73,1.23,3.78,2.82,9.6,3.18,10.46,9.47l-3.68-.17Z" transform="translate(-108.17 -181.19)"/><path class="cls-9" d="M404.5,352.13c-.27,6-2.27,10.53-6.78,13.77a11.08,11.08,0,0,1-14.4-.89c-4.56-4.45-5.52-10-3.75-15.87,1.69-5.63,5.3-9.49,11.42-10.5,5.12-.84,11.16,3.57,12.82,9.54A36.49,36.49,0,0,1,404.5,352.13Z" transform="translate(-108.17 -181.19)"/><path class="cls-10" d="M511.58,413.89a176,176,0,0,1-176,176c-97.22,0-176-78.79-176-176a176,176,0,0,1,176-176C432.75,237.88,511.58,316.71,511.58,413.89Z" transform="translate(-108.17 -181.19)"/><path class="cls-11" d="M331.09,231.92A172.8,172.8,0,0,0,190.27,499.26c3.74-116.11,92.5-203.59,202.78-197.2,36.16,2.1,70.25,14,100.06,33.24a172.77,172.77,0,0,0-162-103.38Z" transform="translate(-108.17 -181.19)"/></svg>