<svg id="Layer_1" data-name="Layer 1" xmlns="http://www.w3.org/2000/svg" xmlns:xlink="http://www.w3.org/1999/xlink" viewBox="0 0 452 452"><defs><style>.cls-1{fill:#282828;}.cls-2{fill:url(#linear-gradient);}.cls-3{fill:#606060;}.cls-4{fill:#444343;}.cls-5{fill:#0080ff;}.cls-6{fill:#f4ff0a;}.cls-7{fill:#dfaf00;}.cls-8{fill:#007f3d;}.cls-9{fill:#00bf10;}.cls-10{fill:url(#radial-gradient);}.cls-11{opacity:0.32;isolation:isolate;fill:url(#linear-gradient-2);}</style><linearGradient id="linear-gradient" x1="539.45" y1="-200.28" x2="651.03" y2="-79.16" gradientTransform="translate(-1412.61 701.89) scale(2.79)" gradientUnits="userSpaceOnUse"><stop offset="0" stop-color="#fff"/><stop offset="1" stop-color="#fff" stop-opacity="0"/></linearGradient><radialGradient id="radial-gradient" cx="895.28" cy="227.14" r="21.12" gradientTransform="translate(3509.3 6329.83) rotate(-135) scale(6.99 8.43)" gradientUnits="userSpaceOnUse"><stop offset="0" stop-color="#fff" stop-opacity="0.41"/><stop offset="1" stop-color="#fff" stop-opacity="0"/></radialGradient><linearGradient id="linear-gradient-2" x1="612.86" y1="281.49" x2="677.56" y2="356.55" gradientTransform="translate(-1588.75 -580.36) scale(2.91)" xlink:href="#linear-gradient"/></defs><title>Psychometric(Button Only)</title><path class="cls-1" d="M560.17,407.19c0,124.81-101.2,226-226,226s-226-101.19-226-226,101.19-226,226-226S560.17,282.38,560.17,407.19Z" transform="translate(-108.17 -181.19)"/><path class="cls-2" d="M556.93,407.23c0,123-99.75,222.76-222.76,222.76S111.4,530.24,111.4,407.23s99.75-222.77,222.77-222.77S556.93,284.18,556.93,407.23Z" transform="translate(-108.17 -181.19)"/><circle class="cls-3" cx="226" cy="226" r="202.78"/><circle class="cls-4" cx="226" cy="226" r="194.63"/><path class="cls-5" d="M517.11,407.2a182.94,182.94,0,0,1-365.88,0c0-101,81.91-182.94,182.94-182.94A182.94,182.94,0,0,1,517.11,407.2Z" transform="translate(-108.17 -181.19)"/><path d="M461,339.79c-1.68,3.85-4.7,5.74-8.8,6.13-1.25.12-2.49.74-3.72.7-3.56-.12-4.44,2.44-5.23,5a2.82,2.82,0,0,0,.48,2c1.43,2.29,3,4.48,4.46,6.76,2.33,3.69,2,7.21-1.05,10.39-1.75,1.83-3.54,3.63-5.38,5.37a7.74,7.74,0,0,1-10.19,1c-2-1.25-3.92-2.6-6.13-4.08-2,3.69-5.5,4.5-9.12,5.14a31.93,31.93,0,0,1-4.47.84c-3.93.13-6.15,1.91-7.29,5.79-.58,2-.77,3.32.53,5,1.94,2.55,3.63,5.28,5.37,8,2.74,4.26,2.41,8.11-1,11.73-2.16,2.25-4.38,4.46-6.63,6.63-3.57,3.41-7.55,3.74-11.74,1-2.9-1.9-5.8-3.79-8.61-5.81-1.25-.9-2.21-.74-3.65-.34-4.35,1.21-6.55,3.7-6.66,8.31a34.91,34.91,0,0,1-1.33,6.69,8.47,8.47,0,0,1-8.65,7.05c-3.21.06-6.42.05-9.63,0-4.88-.07-8-2.71-9.05-7.54-.71-3.39-1.46-6.77-2-10.18-.25-1.54-1.06-2.12-2.31-2.9-4.06-2.51-7.42-1.76-10.78,1.29a35.9,35.9,0,0,1-5.45,3.68c-3.88,2.38-7.86,2-11.13-1.11q-3.59-3.4-7-7a8.55,8.55,0,0,1-1.13-11.13c1.94-3.07,3.95-6.09,6.06-9.05.89-1.25.67-2.22.35-3.65-1.07-4.89-4.27-6.46-8.79-6.79a36.84,36.84,0,0,1-6.92-1.43,8.18,8.18,0,0,1-6.28-7.94c-.11-3.54-.11-7.09,0-10.64a8.28,8.28,0,0,1,6.79-8.32c3.61-.84,7.26-1.53,10.91-2.2,1.45-.27,2.05-1.07,2.84-2.34,2.52-4.07,1.76-7.41-1.25-10.78a38.51,38.51,0,0,1-3.69-5.44,8.56,8.56,0,0,1,.95-10.95c2.35-2.53,4.81-5,7.34-7.34a8.38,8.38,0,0,1,10.92-1c3.14,2,6.14,4.2,9.31,6.11a4.89,4.89,0,0,0,3.14.31c4.88-.83,6.78-4.09,7.06-8.77a39.58,39.58,0,0,1,1.12-6,8.76,8.76,0,0,1,9-7.37c3.3-.06,6.6.09,9.88-.06a6.39,6.39,0,0,0,3.06-1.22A24.37,24.37,0,0,0,368,291a7.6,7.6,0,0,1,9.77-.93c2.3,1.42,4.5,3,6.75,4.48s6.44-.21,7-3c.52-2.56,1-5.14,1.55-7.69a7.71,7.71,0,0,1,7.95-6.41c2.53-.05,5.07-.05,7.6,0,4.11.09,6.88,2.26,7.83,6.22.63,2.63,1.07,5.3,1.62,7.94s4.71,4.45,7.06,2.91c2.19-1.43,4.32-2.95,6.54-4.34,3.49-2.19,7-1.91,10,.88,2,1.83,3.9,3.75,5.74,5.73,2.81,3,3.11,6.48.94,10a48.24,48.24,0,0,1-3.69,5.45c-1.54,1.86-1.64,3.48-.58,5.69a3.85,3.85,0,0,0,3.23,2.59c1.67.23,3.3.79,5,.95,4.13.4,7.13,2.29,8.76,6.18Zm-43.21,29.27c0-2.9-.07-5.59,0-8.28.05-1.46-.43-2.07-1.92-2.33-4.15-.72-8.26-1.69-12.42-2.42a5.61,5.61,0,0,1-4.83-4.16,62.41,62.41,0,0,0-3.56-8.63,5.51,5.51,0,0,1,.39-6.34c2.76-3.93,5.37-8,7.9-11.78l-7.15-7.45c-4,2.63-8,5.24-11.93,8a5.54,5.54,0,0,1-6.35.43,66.85,66.85,0,0,0-8.62-3.57,5.6,5.6,0,0,1-4.18-4.81c-.71-4.16-1.59-8.29-2.52-12.4-.16-.72-.91-1.83-1.44-1.86-3-.18-6-.08-9.08-.08-1,4.91-2,9.52-2.83,14.18a5.83,5.83,0,0,1-4.56,5.06,41,41,0,0,0-7.92,3.29,5.89,5.89,0,0,1-7-.44c-3.83-2.74-7.81-5.28-11.22-7.56L311,325.08c2.67,4,5.36,8.1,8.12,12.14a5.26,5.26,0,0,1,.32,5.71,73.51,73.51,0,0,0-3.7,8.85A5.61,5.61,0,0,1,311,356c-4.23.77-8.45,1.64-12.64,2.58-.63.14-1.56.89-1.58,1.39-.15,3-.08,6-.08,9.09,4.84,1,9.37,1.95,13.94,2.73a6,6,0,0,1,5.25,4.7A34.47,34.47,0,0,0,319,384a6.33,6.33,0,0,1-.43,7.7c-2.72,3.73-5.18,7.64-7.51,11.12l7.08,7.53c4.05-2.71,8.08-5.32,12-8.07a5.63,5.63,0,0,1,6.36-.39,68.48,68.48,0,0,0,8.63,3.58,5.42,5.42,0,0,1,4.08,4.57c.88,4.8,1.93,9.56,2.92,14.4h10.19c1-4.74,2-9.42,2.84-14.14a5.73,5.73,0,0,1,4.4-4.91,59,59,0,0,0,8.38-3.49,5.64,5.64,0,0,1,6.37.39c3.94,2.76,8,5.38,12.31,8.29,1.87-2,3.64-4,5.58-5.89,1.11-1.07,1.31-1.84.35-3.18-2.49-3.51-4.78-7.16-7.23-10.7a5.23,5.23,0,0,1-.3-5.91,43.78,43.78,0,0,0,3.44-8.12,6.19,6.19,0,0,1,5.59-5C408.51,371,413,370,417.79,369.06Zm-44.08-71.31c-2.55,1.55-3.53,3.43-2.5,6.22a15.81,15.81,0,0,1,1,4.7c.19,4.23,1.87,6.94,6.27,8,1.7.42,2.81.59,4.32-.42,5.13-3.41,10-6.84,16.54-8,13-2.34,26,4.06,30.35,16.53,3.62,10.29,1.2,19.42-6.21,27.55,2.73,2.4,3.1,5.6,3,9a3.35,3.35,0,0,0,.78,2.42c2.82,2.08,5.79,4,8.55,5.81l5-4.7c-2.09-3.11-4.06-6.16-6.14-9.13a5.27,5.27,0,0,1-.27-5.92,53.07,53.07,0,0,0,2.81-6.75,5.12,5.12,0,0,1,4.23-3.81c3.63-.66,7.23-1.45,10.83-2.19v-6.77c-3.67-.73-7.22-1.49-10.78-2.14a5.15,5.15,0,0,1-4.28-3.77,50.61,50.61,0,0,0-2.8-6.76,5.39,5.39,0,0,1,.34-6.14c2.07-2.94,4-6,5.84-8.7L436,297.66c-3.13,2.1-6.18,4.07-9.15,6.14a5.25,5.25,0,0,1-5.92.33,41.12,41.12,0,0,0-6.5-2.75,5.4,5.4,0,0,1-4.18-4.78c-.57-3.47-1.38-6.91-2.09-10.38h-6.75c-.74,3.66-1.53,7.19-2.16,10.75a5.16,5.16,0,0,1-3.75,4.29,69.93,69.93,0,0,0-7,2.92,5.18,5.18,0,0,1-5.7-.32C379.82,301.79,376.78,299.81,373.71,297.75ZM408.42,317c5,6.19,5.07,8.56.73,15a37.53,37.53,0,0,1-2.71,4c-2.47,2.8-3,5.48-1.06,9,1.83,3.29,6.6,5.07,9.76,2.8,5.91-4.24,8.29-10.1,7.2-17.21S414.93,317.42,408.42,317Z" transform="translate(-108.17 -181.19)"/><path d="M302.86,537c-1.05-1.63-2.49-3.14-3.08-4.93-2.4-7.24-5.16-14.28-9.58-20.56-.48-.69-1-1.36-1.54-2-4.57-5.57-5.05-5.56-11.82-3.45-9.25,2.88-18.67,5.26-27.87,8.28s-20.12-.64-22.52-14.14a36.57,36.57,0,0,1,.19-11.76c.81-5.27.75-6.07-3.87-8.81-5.33-3.15-6.11-5.18-4.45-11,.17-.59-.29-1.4-.57-2.06-.11-.27-.52-.41-.78-.62-4.82-3.83-5.25-6-2.36-11.48a55,55,0,0,0,2.75-5.68,3.85,3.85,0,0,0-2-5.31c-2.52-1.35-5-2.72-7.48-4.24-7.09-4.48-8.26-10-3.54-16.91,4.84-7.11,9.95-14,14.62-21.26,2.7-4.17,4.7-8.77,7.13-13.11a3.5,3.5,0,0,0-.84-4.92c-1.14-1-2.27-2-3.35-3.09-4.26-4.2-6.39-9.16-3.81-14.89,4.15-9.2,6.59-18.9,9.58-28.47,8.3-26.58,25.58-44.17,53-50.92,18.64-4.58,37.5-7.79,56.75-8.16a83.37,83.37,0,0,1,8.35.42c2.86.23,4.52,2,4.39,4.51s-2.09,4.28-5.06,4.09c-21.08-1.36-41.52,2.65-61.82,7.51a80.27,80.27,0,0,0-15.41,5.6c-16.9,7.93-26.26,22.19-32,39.28-2.1,6.31-3.61,12.82-5.65,19.15a100.66,100.66,0,0,1-4,9.55,4.41,4.41,0,0,0,1.27,5.66c1,.82,1.89,1.69,2.85,2.52,5.08,4.39,6.24,10.11,3.34,16.13A186.68,186.68,0,0,1,213,425.14c-3.88,5-4,4.47,1.65,8.07,1.49,1,3.14,1.64,4.66,2.54,6.88,4.08,8.86,10.43,5.54,17.77-.8,1.76-1.75,3.45-2.66,5.22,2.1,1.85,4.51,3.41,6.15,5.56,2.05,2.69-.55,5-1.67,7.11.16.33.18.43.24.47,8.84,6,10.09,9,7.85,19.52a17.33,17.33,0,0,0,1.32,10.85c1.54,3.52,5.28,5.17,9.36,3.94,13.56-4.07,27.11-8.19,40.6-12.48,7.06-2.25,14.06-4.76,21-7.46a47.83,47.83,0,0,0,8.82-4.88,11.84,11.84,0,0,0,5.66-9.41,4,4,0,0,1,4.59-4,4.18,4.18,0,0,1,3.92,4.46A17.69,17.69,0,0,1,324.79,485c-5.17,5.39-11.74,8.43-18.59,10.94-4.43,1.63-8.91,3.11-13.78,4.79a70.91,70.91,0,0,1,15.13,27.4h97.34c.16-.41.32-.62.27-.7-8-12.84-11.16-27.2-13.4-41.87a82.47,82.47,0,0,1,4.83-44.25,94.64,94.64,0,0,1,13.07-21.89c6.34-8.26,12.36-16.71,15.1-27,.26-1,.47-2,.81-2.92a4.25,4.25,0,0,1,5.22-2.85,4.2,4.2,0,0,1,3,5.12,58.53,58.53,0,0,1-7.75,19.14c-3,4.76-6.24,9.45-9.71,13.9-10.08,12.95-16.36,27.31-16.94,43.88-.4,11.42,1.73,22.51,4.55,33.5a68.3,68.3,0,0,0,9.91,22.58,27.56,27.56,0,0,1,2.85,5.63c1.34,3.41-.5,6.16-4.18,6.24-4.89.11-9.79,0-14.69.1-.92,0-1.83.17-2.74.27Z" transform="translate(-108.17 -181.19)"/><path d="M249.79,353.88l-8.25-1.82c2.28-12.52,7-23.66,15.11-33.34,7.52-9,17.64-13.27,28.48-16.35,2.51-.72,5.07-1.26,7.64-1.73a4.16,4.16,0,0,1,5.18,3.2c.53,2.36-.73,4.39-3.32,5.13-4.53,1.29-9.14,2.35-13.61,3.81-15.66,5.12-23.93,17-28.78,31.89C251.28,347.62,250.64,350.67,249.79,353.88Z" transform="translate(-108.17 -181.19)"/><path d="M240.52,372.61a4.46,4.46,0,0,1-4.44-4.27,4.3,4.3,0,0,1,4.09-4.3,4.14,4.14,0,0,1,4.49,4.07A4.31,4.31,0,0,1,240.52,372.61Z" transform="translate(-108.17 -181.19)"/><path d="M357.14,394.2a30.25,30.25,0,1,1,30.34-30A30.34,30.34,0,0,1,357.14,394.2Zm.08-8.67A21.6,21.6,0,1,0,335.62,364,21.6,21.6,0,0,0,357.22,385.53Z" transform="translate(-108.17 -181.19)"/><path d="M361.53,363.91a4.35,4.35,0,0,1-4.36,4.31,4.14,4.14,0,0,1-4.22-4.1,4.28,4.28,0,0,1,4.15-4.49A4.46,4.46,0,0,1,361.53,363.91Z" transform="translate(-108.17 -181.19)"/><path d="M461.19,339.87c-1.7,3.8-4.7,5.7-8.8,6.1-1.3.1-2.5.7-3.7.7-3.6-.1-4.4,2.4-5.2,5a2.54,2.54,0,0,0,.5,2c1.4,2.3,3,4.5,4.5,6.8,2.3,3.7,2,7.2-1.1,10.4q-2.55,2.7-5.4,5.4c-3,2.9-6.6,3.2-10.2,1-2-1.3-3.9-2.6-6.1-4.1-2,3.7-5.5,4.5-9.1,5.1a23.63,23.63,0,0,1-4.5.8c-3.9.1-6.2,1.9-7.3,5.8-.6,2-.8,3.3.5,5,1.9,2.5,3.6,5.3,5.4,8,2.7,4.3,2.4,8.1-1.1,11.7q-3.3,3.45-6.6,6.6c-3.6,3.4-7.5,3.7-11.7,1-2.9-1.9-5.8-3.8-8.6-5.8-1.3-.9-2.2-.7-3.7-.3-4.3,1.2-6.6,3.7-6.7,8.3a39.61,39.61,0,0,1-1.3,6.7,8.52,8.52,0,0,1-8.6,7.1q-4.8.15-9.6,0c-4.9-.1-8-2.7-9.1-7.5-.7-3.4-1.5-6.8-2-10.2-.2-1.5-1.1-2.1-2.3-2.9-4.1-2.5-7.4-1.8-10.8,1.3a35.25,35.25,0,0,1-5.5,3.7c-3.9,2.4-7.9,2-11.1-1.1-2.4-2.3-4.7-4.6-7-7a8.55,8.55,0,0,1-1.1-11.1c1.9-3.1,4-6.1,6.1-9,.9-1.2.7-2.2.4-3.7-1.1-4.9-4.3-6.5-8.8-6.8a40.19,40.19,0,0,1-6.9-1.4,8.23,8.23,0,0,1-6.3-7.9c-.1-3.5-.1-7.1,0-10.6a8.2,8.2,0,0,1,6.8-8.3c3.6-.8,7.3-1.5,10.9-2.2a3.86,3.86,0,0,0,2.8-2.3c2.5-4.1,1.8-7.4-1.2-10.8A51.42,51.42,0,0,1,304,330a8.6,8.6,0,0,1,.9-10.9c2.4-2.5,4.8-5,7.3-7.3a8.37,8.37,0,0,1,10.9-1c3.1,2,6.1,4.2,9.3,6.1a4.65,4.65,0,0,0,3.1.3c4.9-.8,6.8-4.1,7.1-8.8a42.09,42.09,0,0,1,1.1-6,8.79,8.79,0,0,1,9-7.4c3.3-.1,6.6.1,9.9-.1a6.29,6.29,0,0,0,3.1-1.2,29.56,29.56,0,0,0,2.6-2.4,7.59,7.59,0,0,1,9.8-.9c2.3,1.4,4.5,3,6.7,4.5,2.4,1.6,6.4-.2,7-3,.5-2.6,1-5.1,1.6-7.7.9-4.1,3.7-6.3,7.9-6.4h7.6c4.1.1,6.9,2.3,7.8,6.2.6,2.6,1.1,5.3,1.6,7.9.6,2.8,4.7,4.5,7.1,2.9,2.2-1.4,4.3-3,6.5-4.3,3.5-2.2,7-1.9,10,.9a76.63,76.63,0,0,1,5.7,5.7c2.8,3,3.1,6.5.9,10a52.82,52.82,0,0,1-3.7,5.5,4.82,4.82,0,0,0-.6,5.7c.8,1.6,1.6,2.4,3.2,2.6s3.3.8,5,.9c4.1.4,7.1,2.3,8.8,6.2ZM418,369.17c0-2.9-.1-5.6,0-8.3.1-1.5-.4-2.1-1.9-2.3-4.2-.7-8.3-1.7-12.4-2.4a5.53,5.53,0,0,1-4.8-4.2,65,65,0,0,0-3.6-8.6,5.41,5.41,0,0,1,.4-6.3c2.8-3.9,5.4-8,7.9-11.8l-7.2-7.5c-3.9,2.6-8,5.2-11.9,8a5.41,5.41,0,0,1-6.3.4,71.16,71.16,0,0,0-8.6-3.6,5.8,5.8,0,0,1-4.2-4.8c-.7-4.2-1.6-8.3-2.5-12.4-.2-.7-.9-1.8-1.4-1.9-3-.2-6-.1-9.1-.1-1,4.9-2,9.5-2.8,14.2a6,6,0,0,1-4.6,5.1,38.86,38.86,0,0,0-7.9,3.3,6,6,0,0,1-7-.4c-3.8-2.7-7.8-5.3-11.2-7.6-2.7,2.5-5.1,4.8-7.6,7.2,2.7,4,5.4,8.1,8.1,12.1a5.15,5.15,0,0,1,.3,5.7,74.62,74.62,0,0,0-3.7,8.8,5.53,5.53,0,0,1-4.8,4.2c-4.2.8-8.4,1.6-12.6,2.6-.6.1-1.6.9-1.6,1.4-.1,3-.1,6-.1,9.1,4.8,1,9.4,2,13.9,2.7a6.17,6.17,0,0,1,5.3,4.7,30.48,30.48,0,0,0,3.1,7.5,6.31,6.31,0,0,1-.4,7.7c-2.7,3.7-5.2,7.6-7.5,11.1,2.5,2.7,4.8,5,7.1,7.5,4-2.7,8.1-5.3,12-8.1a5.75,5.75,0,0,1,6.4-.4,71.16,71.16,0,0,0,8.6,3.6,5.44,5.44,0,0,1,4.1,4.6c.9,4.8,1.9,9.6,2.9,14.4h10.2c1-4.7,2-9.4,2.8-14.1a5.76,5.76,0,0,1,4.4-4.9,51.36,51.36,0,0,0,8.4-3.5,5.57,5.57,0,0,1,6.4.4c3.9,2.8,8,5.4,12.3,8.3,1.9-2,3.6-4,5.6-5.9,1.1-1.1,1.3-1.8.4-3.2-2.5-3.5-4.8-7.2-7.2-10.7a5.12,5.12,0,0,1-.3-5.9,40.91,40.91,0,0,0,3.4-8.1,6.37,6.37,0,0,1,5.6-5C408.69,371.07,413.19,370.07,418,369.17Zm-44.1-71.4c-2.5,1.6-3.5,3.4-2.5,6.2a18.76,18.76,0,0,1,1,4.7c.2,4.2,1.9,6.9,6.3,8,1.7.4,2.8.6,4.3-.4,5.1-3.4,10-6.8,16.5-8,13-2.3,26,4.1,30.3,16.5,3.6,10.3,1.2,19.4-6.2,27.6,2.7,2.4,3.1,5.6,3,9a3.19,3.19,0,0,0,.8,2.4c2.8,2.1,5.8,4,8.6,5.8,1.8-1.7,3.3-3.2,5-4.7-2.1-3.1-4.1-6.2-6.1-9.1-1.4-2-1.3-3.8-.3-5.9a51.05,51.05,0,0,0,2.8-6.8,5.14,5.14,0,0,1,4.2-3.8c3.6-.7,7.2-1.5,10.8-2.2v-6.8c-3.7-.7-7.2-1.5-10.8-2.1a5.25,5.25,0,0,1-4.3-3.8,57.2,57.2,0,0,0-2.8-6.8,5.43,5.43,0,0,1,.3-6.1c2.1-2.9,4-6,5.8-8.7-1.6-1.8-3.1-3.4-4.6-5.1-3.1,2.1-6.2,4.1-9.1,6.1a5.12,5.12,0,0,1-5.9.3,33.11,33.11,0,0,0-6.5-2.7,5.42,5.42,0,0,1-4.2-4.8c-.6-3.5-1.4-6.9-2.1-10.4h-6.7c-.7,3.7-1.5,7.2-2.2,10.7a5.16,5.16,0,0,1-3.7,4.3,60.73,60.73,0,0,0-7,2.9,5.15,5.15,0,0,1-5.7-.3Q378.54,300.92,373.89,297.77Zm34.7,19.3c5,6.2,5.1,8.6.7,15-.9,1.3-1.7,2.8-2.7,4-2.5,2.8-3,5.5-1.1,9,1.8,3.3,6.6,5.1,9.8,2.8,5.9-4.2,8.3-10.1,7.2-17.2S415.09,317.47,408.59,317.07Z" transform="translate(-108.17 -181.19)"/><path d="M303.09,537.07c-1.1-1.6-2.5-3.1-3.1-4.9-2.4-7.2-5.2-14.3-9.6-20.6-.5-.7-1-1.4-1.5-2-4.6-5.6-5.1-5.6-11.8-3.4-9.3,2.9-18.7,5.3-27.9,8.3s-20.1-.6-22.5-14.1a36,36,0,0,1,.2-11.8c.8-5.3.8-6.1-3.9-8.8-5.3-3.2-6.1-5.2-4.4-11,.2-.6-.3-1.4-.6-2.1-.1-.3-.5-.4-.8-.6-4.8-3.8-5.2-6-2.4-11.5a60.16,60.16,0,0,0,2.8-5.7,3.82,3.82,0,0,0-2-5.3c-2.5-1.4-5.1-2.7-7.5-4.2-7.1-4.5-8.3-10-3.5-16.9,4.8-7.1,10-14,14.6-21.3,2.7-4.2,4.7-8.8,7.1-13.1,1.1-2,.8-3.5-.8-4.9-1.1-1-2.3-2-3.4-3.1-4.3-4.2-6.4-9.2-3.8-14.9,4.1-9.2,6.6-18.9,9.6-28.5,8.3-26.6,25.6-44.2,53-50.9,18.6-4.6,37.5-7.8,56.8-8.2a75.65,75.65,0,0,1,8.3.4c2.9.2,4.5,2,4.4,4.5s-2.1,4.3-5.1,4.1c-21.1-1.4-41.5,2.7-61.8,7.5a83.35,83.35,0,0,0-15.4,5.6c-16.9,7.9-26.3,22.2-31.9,39.3-2.1,6.3-3.6,12.8-5.7,19.1a100.08,100.08,0,0,1-4,9.5,4.4,4.4,0,0,0,1.3,5.7c1,.8,1.9,1.7,2.8,2.5,5.1,4.4,6.2,10.1,3.3,16.1a186.37,186.37,0,0,1-20.7,33.2c-3.9,5-4,4.5,1.6,8.1,1.5.9,3.1,1.6,4.7,2.5,6.9,4.1,8.9,10.4,5.5,17.8-.8,1.8-1.7,3.4-2.7,5.2,2.1,1.8,4.5,3.4,6.1,5.6,2.1,2.7-.6,5-1.7,7.1.2.3.2.4.2.5,8.8,6,10.1,9,7.9,19.5a17.75,17.75,0,0,0,1.3,10.9c1.5,3.5,5.3,5.2,9.4,3.9,13.6-4.1,27.1-8.2,40.6-12.5,7.1-2.2,14.1-4.8,21-7.5a44.78,44.78,0,0,0,8.8-4.9,11.86,11.86,0,0,0,5.7-9.4,4.1,4.1,0,0,1,4.6-4,4.19,4.19,0,0,1,3.9,4.5,17.72,17.72,0,0,1-5.2,12.5c-5.2,5.4-11.7,8.4-18.6,10.9-4.4,1.6-8.9,3.1-13.8,4.8a70.54,70.54,0,0,1,15.1,27.4h97.3a2.6,2.6,0,0,0,.3-.7c-8-12.8-11.2-27.2-13.4-41.9-2.3-15.2-1-30,4.8-44.3,3.2-8,7.9-15.1,13.1-21.9,6.3-8.3,12.4-16.7,15.1-27,.3-1,.5-2,.8-2.9a4.18,4.18,0,0,1,5.2-2.8,4.26,4.26,0,0,1,3,5.1,57.06,57.06,0,0,1-7.8,19.1,164.74,164.74,0,0,1-9.7,13.9c-10.1,12.9-16.4,27.3-16.9,43.9-.4,11.4,1.7,22.5,4.5,33.5a69.23,69.23,0,0,0,9.9,22.6,29.73,29.73,0,0,1,2.9,5.6c1.3,3.4-.5,6.2-4.2,6.2-4.9.1-9.8.1-14.7.1a24.77,24.77,0,0,0-2.7.3C364.59,537.07,333.79,537.07,303.09,537.07Z" transform="translate(-108.17 -181.19)"/><path d="M250,354c-2.8-.6-5.4-1.2-8.2-1.8,2.3-12.5,7-23.7,15.1-33.3,7.5-9,17.6-13.3,28.5-16.4a69.11,69.11,0,0,1,7.6-1.7,4.19,4.19,0,0,1,5.2,3.2,4.15,4.15,0,0,1-3.3,5.1c-4.5,1.3-9.1,2.4-13.6,3.8-15.7,5.1-23.9,17-28.8,31.9C251.49,347.67,250.79,350.77,250,354Z" transform="translate(-108.17 -181.19)"/><path d="M240.69,372.67a4.35,4.35,0,0,1-4.4-4.3,4.29,4.29,0,0,1,4.1-4.3,4.15,4.15,0,0,1,4.5,4.1A4.42,4.42,0,0,1,240.69,372.67Z" transform="translate(-108.17 -181.19)"/><path class="cls-6" d="M418,369.17c-4.8,1-9.3,2-13.8,2.7a6.25,6.25,0,0,0-5.6,5,47.87,47.87,0,0,1-3.4,8.1,5.12,5.12,0,0,0,.3,5.9c2.5,3.5,4.7,7.2,7.2,10.7,1,1.3.8,2.1-.4,3.2-1.9,1.9-3.7,3.9-5.6,5.9-4.3-2.9-8.4-5.5-12.3-8.3a5.57,5.57,0,0,0-6.4-.4,62,62,0,0,1-8.4,3.5,5.76,5.76,0,0,0-4.4,4.9c-.8,4.7-1.9,9.4-2.8,14.1h-10.2c-1-4.8-2-9.6-2.9-14.4-.4-2.5-1.7-3.8-4.1-4.6a71.16,71.16,0,0,1-8.6-3.6,5.57,5.57,0,0,0-6.4.4c-3.9,2.7-8,5.4-12,8.1-2.3-2.5-4.6-4.9-7.1-7.5,2.3-3.5,4.8-7.4,7.5-11.1a6.31,6.31,0,0,0,.4-7.7,38.17,38.17,0,0,1-3.1-7.5,6,6,0,0,0-5.3-4.7c-4.6-.8-9.1-1.8-13.9-2.7,0-3-.1-6.1.1-9.1,0-.5,1-1.3,1.6-1.4,4.2-.9,8.4-1.8,12.6-2.6a5.66,5.66,0,0,0,4.8-4.2,68.15,68.15,0,0,1,3.7-8.8,5.15,5.15,0,0,0-.3-5.7c-2.8-4-5.4-8.1-8.1-12.1,2.5-2.4,4.9-4.7,7.6-7.2,3.4,2.3,7.4,4.8,11.2,7.6a5.7,5.7,0,0,0,7,.4,38.86,38.86,0,0,1,7.9-3.3,5.85,5.85,0,0,0,4.6-5.1c.8-4.7,1.8-9.3,2.8-14.2,3.1,0,6.1-.1,9.1.1.5,0,1.3,1.1,1.4,1.9.9,4.1,1.8,8.2,2.5,12.4a5.42,5.42,0,0,0,4.2,4.8,65,65,0,0,1,8.6,3.6,5.58,5.58,0,0,0,6.3-.4c3.9-2.8,8-5.4,11.9-8l7.2,7.5c-2.5,3.8-5.1,7.8-7.9,11.8a5.41,5.41,0,0,0-.4,6.3,71.16,71.16,0,0,1,3.6,8.6,5.66,5.66,0,0,0,4.8,4.2c4.2.7,8.3,1.7,12.4,2.4,1.5.3,2,.9,1.9,2.3C417.89,363.57,418,366.27,418,369.17Zm-60.7,25.1a30.25,30.25,0,1,0-30.3-30.4A30.28,30.28,0,0,0,357.29,394.27Z" transform="translate(-108.17 -181.19)"/><path class="cls-7" d="M373.89,297.77c3.1,2.1,6.1,4,9.1,6.1a5.15,5.15,0,0,0,5.7.3,60.73,60.73,0,0,1,7-2.9,5.16,5.16,0,0,0,3.7-4.3c.6-3.6,1.4-7.1,2.2-10.7h6.7c.7,3.5,1.5,6.9,2.1,10.4a5.42,5.42,0,0,0,4.2,4.8,52.41,52.41,0,0,1,6.5,2.7,5.28,5.28,0,0,0,5.9-.3c3-2.1,6-4,9.1-6.1,1.5,1.7,2.9,3.3,4.6,5.1-1.8,2.7-3.8,5.8-5.8,8.7a5.26,5.26,0,0,0-.3,6.1,57.2,57.2,0,0,1,2.8,6.8,5.13,5.13,0,0,0,4.3,3.8c3.6.6,7.1,1.4,10.8,2.1v6.8c-3.6.7-7.2,1.5-10.8,2.2a5,5,0,0,0-4.2,3.8,57.2,57.2,0,0,1-2.8,6.8,5.11,5.11,0,0,0,.3,5.9c2.1,3,4,6,6.1,9.1l-5,4.7c-2.8-1.8-5.7-3.7-8.6-5.8a3.19,3.19,0,0,1-.8-2.4c.1-3.4-.3-6.6-3-9,7.4-8.1,9.8-17.3,6.2-27.6-4.4-12.5-17.4-18.9-30.3-16.5-6.6,1.2-11.4,4.6-16.5,8-1.5,1-2.6.8-4.3.4-4.4-1.1-6.1-3.8-6.3-8a15.19,15.19,0,0,0-1-4.7C370.39,301.27,371.39,299.37,373.89,297.77Z" transform="translate(-108.17 -181.19)"/><path class="cls-8" d="M408.59,317.07c6.5.4,12.8,6.5,13.9,13.6s-1.3,13-7.2,17.2c-3.2,2.3-7.9.5-9.8-2.8-2-3.5-1.4-6.2,1.1-9a28,28,0,0,0,2.7-4C413.69,325.67,413.59,323.27,408.59,317.07Z" transform="translate(-108.17 -181.19)"/><path d="M357.29,394.27a30.25,30.25,0,1,1,30.4-30A30.28,30.28,0,0,1,357.29,394.27Zm.1-8.7a21.6,21.6,0,1,0-21.6-21.5A21.55,21.55,0,0,0,357.39,385.57Z" transform="translate(-108.17 -181.19)"/><path class="cls-9" d="M357.39,385.57a21.6,21.6,0,0,1-.2-43.2,21.6,21.6,0,1,1,.2,43.2Zm4.3-21.6a4.49,4.49,0,0,0-4.4-4.3,4.22,4.22,0,0,0-4.1,4.5,4.14,4.14,0,0,0,4.2,4.1A4.27,4.27,0,0,0,361.69,364Z" transform="translate(-108.17 -181.19)"/><path d="M361.69,364a4.42,4.42,0,0,1-4.4,4.3,4.08,4.08,0,0,1-4.2-4.1,4.34,4.34,0,0,1,4.1-4.5A4.51,4.51,0,0,1,361.69,364Z" transform="translate(-108.17 -181.19)"/><path class="cls-10" d="M511.58,413.89a176,176,0,0,1-176,176c-97.22,0-176-78.79-176-176a176,176,0,0,1,176-176C432.75,237.88,511.58,316.71,511.58,413.89Z" transform="translate(-108.17 -181.19)"/><path class="cls-11" d="M331.09,231.92A172.8,172.8,0,0,0,190.27,499.26c3.74-116.11,92.5-203.59,202.78-197.2,36.16,2.1,70.25,14,100.06,33.24a172.77,172.77,0,0,0-162-103.38Z" transform="translate(-108.17 -181.19)"/></svg>