<svg id="Layer_1" data-name="Layer 1" xmlns="http://www.w3.org/2000/svg" xmlns:xlink="http://www.w3.org/1999/xlink" viewBox="0 0 452 452"><defs><style>.cls-1{fill:#282828;}.cls-2{fill:url(#linear-gradient);}.cls-3{fill:#606060;}.cls-4{fill:#444343;}.cls-5{fill:#0080ff;}.cls-6{fill:#007f3d;}.cls-7{fill:#dfaf00;}.cls-8{fill:#bf1500;}.cls-9{fill:#fff;}.cls-10{fill:#00bf10;}.cls-11{fill:#f4ff0a;}.cls-12{fill:url(#radial-gradient);}.cls-13{opacity:0.32;isolation:isolate;fill:url(#linear-gradient-2);}</style><linearGradient id="linear-gradient" x1="539.45" y1="-200.28" x2="651.03" y2="-79.16" gradientTransform="translate(-1412.61 701.89) scale(2.79)" gradientUnits="userSpaceOnUse"><stop offset="0" stop-color="#fff"/><stop offset="1" stop-color="#fff" stop-opacity="0"/></linearGradient><radialGradient id="radial-gradient" cx="895.28" cy="227.14" r="21.12" gradientTransform="translate(3509.3 6329.83) rotate(-135) scale(6.99 8.43)" gradientUnits="userSpaceOnUse"><stop offset="0" stop-color="#fff" stop-opacity="0.41"/><stop offset="1" stop-color="#fff" stop-opacity="0"/></radialGradient><linearGradient id="linear-gradient-2" x1="612.86" y1="281.49" x2="677.56" y2="356.55" gradientTransform="translate(-1588.75 -580.36) scale(2.91)" xlink:href="#linear-gradient"/></defs><title>Counselling(Button Only)</title><path class="cls-1" d="M560.17,407.19c0,124.81-101.2,226-226,226s-226-101.19-226-226,101.19-226,226-226S560.17,282.38,560.17,407.19Z" transform="translate(-108.17 -181.19)"/><path class="cls-2" d="M556.93,407.23c0,123-99.75,222.76-222.76,222.76S111.4,530.24,111.4,407.23s99.75-222.77,222.77-222.77S556.93,284.18,556.93,407.23Z" transform="translate(-108.17 -181.19)"/><circle class="cls-3" cx="226" cy="226" r="202.78"/><circle class="cls-4" cx="226" cy="226" r="194.63"/><path class="cls-5" d="M517.11,407.2a182.94,182.94,0,0,1-365.88,0c0-101,81.91-182.94,182.94-182.94A182.94,182.94,0,0,1,517.11,407.2Z" transform="translate(-108.17 -181.19)"/><path d="M202.51,526v-8.37H240V450.69h-7.91V425.64h16.33c.08-.94.18-1.66.18-2.39,0-4.39,0-8.78,0-13.17a16.64,16.64,0,0,1,12.34-16.33c4.85-1.43,9.71-2.83,14.6-4.12,1.72-.45,2.4-1.16,2.43-3.07.06-3.15-.41-5.74-2.81-8.18a17.78,17.78,0,0,1-5.23-11.82c-.2-6.11-.66-12.43.57-18.34C273,335.93,285.1,328,297.41,329.43a25.07,25.07,0,0,1,22.21,24.33c.08,2.87,0,5.75,0,8.62a24.82,24.82,0,0,1-7.12,17.86c-1,1-1.79,7.37-1,8.4a3.43,3.43,0,0,0,1.74.84c4.46,1.29,8.9,2.62,13.39,3.78,8,2.06,12.64,7.05,13.94,15.6h4.91c5.49,0,11,.05,16.47,0a4.58,4.58,0,0,0,2.9-1c6.94-6.8,13.78-13.69,20.64-20.57a8.63,8.63,0,0,0,.67-.88c-.83-.41-1.58-.76-2.31-1.14-7.86-4.15-12.91-10.52-13.63-19.42a63.56,63.56,0,0,1,.62-17.6c2.47-12.07,14.36-20,26.71-18.79A25,25,0,0,1,420,353c.16,3.29.1,6.59.08,9.88,0,7.12-2.82,13.09-8,18.32,7.51,4.26,8.64,11.21,8,19.08h16.64c.08,1.23.19,2.2.19,3.17q0,24.7,0,49.41c0,16.15-8.28,26.76-23.92,30.73a3.41,3.41,0,0,0-.69.44c.39,4.2.77,8.54,1.2,12.88.62,6.22,1.3,12.43,1.88,18.65.12,1.25.3,2,1.84,2,14.78,0,29.56,0,44.34-.08a1.51,1.51,0,0,0,.48-.16V526Zm46.21-58.63v50.21c3.06,0,6,.09,8.91-.07.6,0,1.34-.9,1.67-1.55q3.38-6.51,6.57-13.12a3,3,0,0,1,3-2q34.07.09,68.14,0a2.76,2.76,0,0,1,2.9,1.81c2.1,4.41,4.3,8.77,6.56,13.11.38.73,1.17,1.69,1.82,1.73,2.92.19,5.85.09,8.82.09V467.28H269.59v-8.2h87.62v-8.31H248.76v8.38H261v8.22ZM257,425.43h59.06c-1.24-4.91-.41-9.17,3-12.81s8-4,12.56-3.81c-.1-3.47-2.08-5.9-5.72-7-5.08-1.53-10.18-3-15.32-4.36a3.35,3.35,0,0,0-2.74.83c-8.33,8.53-18.13,8.53-26.63,0a3.18,3.18,0,0,0-2.53-.84q-8,2.08-15.8,4.5c-3.36,1-5.64,3.39-5.82,6.92C256.83,414.29,257,419.76,257,425.43Zm108.81,33.63h31.93c8.86,0,14-5.13,14-13.94q0-23.67,0-47.33v-2.16a52,52,0,0,1-6.75,9c-8.25,8.45-16.64,16.76-25,25.06a5.22,5.22,0,0,0-1.72,4.19c.11,5.47,0,10.93,0,16.74H365.84ZM412,358.6l-.21,0c0-1.68.09-3.38,0-5.06a16.71,16.71,0,0,0-33.4.51q-.11,4.68,0,9.36a16.66,16.66,0,0,0,33,2.74A69.7,69.7,0,0,0,412,358.6Zm-100.36.2-.26,0c0-1.52.06-3,0-4.55-.41-9.48-7.85-16.74-17-16.58-9.27.17-16.32,7.38-16.5,16.94-.06,3-.08,5.91,0,8.86a16.65,16.65,0,0,0,32.75,3.61C311.35,364.39,311.32,361.56,311.61,358.8Zm-71.35,83.37H369.67v-8.1H240.26ZM420.12,409v3c0,10.89,0,21.79,0,32.68a30.49,30.49,0,0,1-.44,6.05c-2.11,10-10.31,16.53-21,16.63-10,.1-19.93,0-29.9,0h-2.9v8.43h2.36c12.75,0,25.51,0,38.26,0,13.15,0,22-9,22-22.19q0-21,0-42.06c0-.82-.07-1.64-.12-2.57Zm-70.4,16.61c6.76,0,13.51.08,20.25-.08a6.24,6.24,0,0,0,3.92-1.59C383,415,392,406,401,396.94a13.49,13.49,0,0,0,1.53-1.68,4.73,4.73,0,0,0-.36-5.84,4.67,4.67,0,0,0-6-.7,14.42,14.42,0,0,0-2.06,1.85c-8,8-16.05,15.94-24,24a7.65,7.65,0,0,1-6.13,2.6c-11.56-.15-23.12-.08-34.68-.06-3.49,0-5.42,1.6-5.37,4.31s1.93,4.13,5.28,4.14C336.05,425.6,342.89,425.59,349.72,425.59Zm37.34,58.69H365.91v33.11h24.47C389.26,506.2,388.16,495.25,387.06,484.28Zm-119,33.1H337.9c-1.27-2.54-2.32-4.83-3.57-7a2.63,2.63,0,0,0-2-1.05q-29.39-.09-58.78,0a2.66,2.66,0,0,0-2,1C270.35,512.51,269.31,514.81,268,517.38Zm139.12.2c-1.15-11.46-2.26-22.41-3.35-33.25h-8.3c1.08,10.81,2.11,21.38,3.22,31.94a1.77,1.77,0,0,0,1.15,1.25C402.2,517.64,404.54,517.58,407.15,517.58Zm-104.56-131a26.39,26.39,0,0,1-16.09,0c-1.21,3.88.58,6.29,3.46,8.2a8,8,0,0,0,9.46-.13C302.23,392.7,303.81,390.27,302.59,386.59Z" transform="translate(-108.17 -181.19)"/><path d="M403.16,308.4h-2.92c-11.56,0-23.13-.06-34.69.08a7.82,7.82,0,0,0-4.49,1.65c-8.64,7-17.15,14.21-25.71,21.34-.88.74-1.78,1.46-3,2.49V308.45H303.06V266.71h100.1ZM311.51,300h29.24v16.06c6.29-5.23,12-10.07,17.86-14.79A5.79,5.79,0,0,1,362,300c10.05-.09,20.1,0,30.15,0h2.74V275.05H311.51Z" transform="translate(-108.17 -181.19)"/><path class="cls-6" d="M248.72,467.37H261v-8.22H248.76v-8.38H357.21v8.31H269.59v8.2h87.56v50.31c-3,0-5.9.1-8.82-.09-.65,0-1.44-1-1.82-1.73-2.26-4.34-4.46-8.7-6.56-13.11a2.76,2.76,0,0,0-2.9-1.81q-34.07.06-68.14,0a3,3,0,0,0-3,2q-3.18,6.62-6.57,13.12c-.33.65-1.07,1.52-1.67,1.55-2.92.16-5.85.07-8.91.07Z" transform="translate(-108.17 -181.19)"/><path class="cls-7" d="M257,425.43c0-5.67-.2-11.14.07-16.59.18-3.53,2.46-5.89,5.82-6.92q7.84-2.42,15.8-4.5a3.18,3.18,0,0,1,2.53.84c8.5,8.56,18.3,8.56,26.63,0a3.35,3.35,0,0,1,2.74-.83c5.14,1.34,10.24,2.83,15.32,4.36,3.64,1.09,5.62,3.52,5.72,7-4.6-.17-9.11.13-12.56,3.81s-4.25,7.9-3,12.81Z" transform="translate(-108.17 -181.19)"/><path class="cls-7" d="M365.84,459.06v-8.42h12.49c0-5.81.07-11.27,0-16.74a5.22,5.22,0,0,1,1.72-4.19c8.4-8.3,16.79-16.61,25-25.06a52,52,0,0,0,6.75-9v2.16q0,23.67,0,47.33c0,8.81-5.16,13.93-14,13.94Z" transform="translate(-108.17 -181.19)"/><path class="cls-8" d="M412,358.6a69.7,69.7,0,0,1-.62,7.53,16.66,16.66,0,0,1-33-2.74q-.12-4.68,0-9.36a16.71,16.71,0,0,1,33.4-.51c.1,1.68,0,3.38,0,5.06Z" transform="translate(-108.17 -181.19)"/><path class="cls-9" d="M311.61,358.8c-.29,2.76-.26,5.59-.92,8.26a16.65,16.65,0,0,1-32.75-3.61c-.12-2.95-.1-5.91,0-8.86.18-9.56,7.23-16.77,16.5-16.94,9.1-.16,16.54,7.1,17,16.58.06,1.51,0,3,0,4.55Z" transform="translate(-108.17 -181.19)"/><path class="cls-10" d="M240.26,442.17v-8.1H369.67v8.1Z" transform="translate(-108.17 -181.19)"/><path class="cls-10" d="M420.12,409h8.29c0,.93.12,1.75.12,2.57q0,21,0,42.06c0,13.21-8.9,22.15-22,22.19-12.75,0-25.51,0-38.26,0h-2.36v-8.43h2.9c10,0,19.93.07,29.9,0,10.69-.1,18.89-6.61,21-16.63a30.49,30.49,0,0,0,.44-6.05c0-10.89,0-21.79,0-32.68Z" transform="translate(-108.17 -181.19)"/><path class="cls-7" d="M349.72,425.59c-6.83,0-13.67,0-20.5,0-3.35,0-5.23-1.51-5.28-4.14s1.88-4.3,5.37-4.31c11.56,0,23.12-.09,34.68.06a7.65,7.65,0,0,0,6.13-2.6c7.91-8.08,15.95-16,24-24a14.42,14.42,0,0,1,2.06-1.85,4.67,4.67,0,0,1,6,.7,4.73,4.73,0,0,1,.36,5.84,13.49,13.49,0,0,1-1.53,1.68c-9,9-18,18.06-27.08,27a6.24,6.24,0,0,1-3.92,1.59C363.23,425.67,356.48,425.59,349.72,425.59Z" transform="translate(-108.17 -181.19)"/><path class="cls-6" d="M407.15,517.58c-2.61,0-4.95.06-7.28-.06a1.77,1.77,0,0,1-1.15-1.25c-1.11-10.56-2.14-21.13-3.22-31.94h8.3C404.89,495.17,406,506.12,407.15,517.58Z" transform="translate(-108.17 -181.19)"/><path class="cls-9" d="M302.59,386.59c1.22,3.68-.36,6.11-3.17,8a8,8,0,0,1-9.46.13c-2.88-1.91-4.67-4.32-3.46-8.2A26.39,26.39,0,0,0,302.59,386.59Z" transform="translate(-108.17 -181.19)"/><path class="cls-11" d="M311.51,300V275.05h83.34V300h-2.74c-10.05,0-20.1,0-30.15,0a5.79,5.79,0,0,0-3.35,1.24c-5.84,4.72-11.57,9.56-17.86,14.79V300Zm58.25-16.61H336.52v8.07h33.24Zm-41.84,8.07v-8h-8.11v8Zm58.58-8.08h-8v8.1h8Z" transform="translate(-108.17 -181.19)"/><path d="M369.76,283.39v8.07H336.52v-8.07Z" transform="translate(-108.17 -181.19)"/><path d="M327.92,291.46h-8.11v-8h8.11Z" transform="translate(-108.17 -181.19)"/><path d="M386.5,283.38v8.1h-8v-8.1Z" transform="translate(-108.17 -181.19)"/><path class="cls-12" d="M511.58,413.89a176,176,0,0,1-176,176c-97.22,0-176-78.79-176-176a176,176,0,0,1,176-176C432.75,237.88,511.58,316.71,511.58,413.89Z" transform="translate(-108.17 -181.19)"/><path class="cls-13" d="M331.09,231.92A172.8,172.8,0,0,0,190.27,499.26c3.74-116.11,92.5-203.59,202.78-197.2,36.16,2.1,70.25,14,100.06,33.24a172.77,172.77,0,0,0-162-103.38Z" transform="translate(-108.17 -181.19)"/></svg>