<svg id="Layer_1" data-name="Layer 1" xmlns="http://www.w3.org/2000/svg" xmlns:xlink="http://www.w3.org/1999/xlink" viewBox="0 0 452 452"><defs><style>.cls-1{fill:#282828;}.cls-2{fill:url(#linear-gradient);}.cls-3{fill:#606060;}.cls-4{fill:#444343;}.cls-5{fill:#0080ff;}.cls-6{fill:#fff;}.cls-7{fill:#f4ff0a;}.cls-8{fill:#dfaf00;}.cls-9{fill:url(#radial-gradient);}.cls-10{opacity:0.32;isolation:isolate;fill:url(#linear-gradient-2);}</style><linearGradient id="linear-gradient" x1="539.45" y1="-200.28" x2="651.03" y2="-79.16" gradientTransform="translate(-1412.61 701.89) scale(2.79)" gradientUnits="userSpaceOnUse"><stop offset="0" stop-color="#fff"/><stop offset="1" stop-color="#fff" stop-opacity="0"/></linearGradient><radialGradient id="radial-gradient" cx="895.28" cy="227.14" r="21.12" gradientTransform="translate(3509.3 6329.83) rotate(-135) scale(6.99 8.43)" gradientUnits="userSpaceOnUse"><stop offset="0" stop-color="#fff" stop-opacity="0.41"/><stop offset="1" stop-color="#fff" stop-opacity="0"/></radialGradient><linearGradient id="linear-gradient-2" x1="612.86" y1="281.49" x2="677.56" y2="356.55" gradientTransform="translate(-1588.75 -580.36) scale(2.91)" xlink:href="#linear-gradient"/></defs><title>Wellness(Button Only)</title><path class="cls-1" d="M560.17,407.19c0,124.81-101.2,226-226,226s-226-101.19-226-226,101.19-226,226-226S560.17,282.38,560.17,407.19Z" transform="translate(-108.17 -181.19)"/><path class="cls-2" d="M556.93,407.23c0,123-99.75,222.76-222.76,222.76S111.4,530.24,111.4,407.23s99.75-222.77,222.77-222.77S556.93,284.18,556.93,407.23Z" transform="translate(-108.17 -181.19)"/><circle class="cls-3" cx="226" cy="226" r="202.78"/><circle class="cls-4" cx="226" cy="226" r="194.63"/><path class="cls-5" d="M517.11,407.2a182.94,182.94,0,0,1-365.88,0c0-101,81.91-182.94,182.94-182.94A182.94,182.94,0,0,1,517.11,407.2Z" transform="translate(-108.17 -181.19)"/><path class="cls-6" d="M462,346.46c-.33-1.82-.6-3.65-1-5.45-3.9-18-14.33-30.67-31.81-36.57s-33.67-2.45-47,10.24c-16.07,15.32-31.41,31.42-47,47.24-3.7,3.75-4.61,8.4-3,13.37s5.23,7.84,10.33,9a8.74,8.74,0,0,1,4,2.12q20.25,20.25,40.34,40.66a15.91,15.91,0,0,1,1.38,1.47,4.73,4.73,0,0,1-.48,6.43,4.54,4.54,0,0,1-6.21-.09c-.58-.49-1.09-1.06-1.62-1.6l-49.78-50.21c-.66-.66-1.27-1.65-2.05-1.83-1.45-.33-3.34-.73-4.45-.08a5.14,5.14,0,0,0-2,3.89c0,1.28,1.12,2.76,2.12,3.78q25.44,25.8,51,51.52c2.42,2.44,2.6,5.13.61,7.17s-4.79,1.77-7.14-.57c-3.54-3.52-7-7.07-10.53-10.61-19.15-19.33-38.4-38.55-57.4-58a39.27,39.27,0,0,1,3.85-58.78c15.09-11.8,36-10.67,50.54,2.74,2.49,2.3,5.05,2.51,6.89.56s1.51-4.56-1-6.85c-11.82-10.94-25.75-15.43-41.55-12.29-18.66,3.71-31.22,15.08-36.68,33.22s-1.06,34.28,12.09,47.83c13.42,13.82,27.09,27.39,40.65,41.07,9.16,9.24,18.25,18.54,27.49,27.7a13.17,13.17,0,0,0,22.15-5.52c.3-1,.47-2.1.69-3.14,7.42-1.09,11.56-5.33,12.57-12.64.36-.1.68-.22,1-.28,6.33-1.2,10.17-4.87,11.45-11.26a3,3,0,0,1,2-1.66,13.4,13.4,0,0,0,10.06-8.71,8.91,8.91,0,0,1,1.92-2.89Q436,395.72,447.6,384.05a47.75,47.75,0,0,0,12.65-21.87c.77-3,1.18-6.09,1.75-9.13M330.7,276a12.43,12.43,0,0,1-1.45.39c-12.93,1.91-25.91,3.54-38.78,5.77-11.79,2-23.14,5.72-33.19,12.45-14.82,9.94-23.82,24.19-28.87,41-2.75,9.12-5,18.33-9,27.05-2.84,6.19-1.25,11.63,3.86,16.2,1.07.95,2.1,1.95,3.16,2.92a3.23,3.23,0,0,1,.71,4.5c-4.89,8.27-9.6,16.65-14.63,24.84-2.28,3.73-5.32,7-7.69,10.67-3.93,6.13-2.63,11.62,3.51,15.62,2.25,1.47,4.67,2.69,7,4,3.68,2.09,4.22,3.77,2.34,7.65-1,2.13-2.29,4.15-3.18,6.32-1.42,3.45-.83,5.44,2,7.85,1.08.92,2.18,1.82,3.22,2.68-2.24,7.17-1.61,8.84,4.63,12.54,3.87,2.3,4,3.42,3.36,8.16a39.7,39.7,0,0,0-.25,12.25c2.44,13.43,13.4,16.95,22.39,14,9.45-3.1,19.09-5.61,28.59-8.56,5.87-1.83,6.24-1.93,10.24,2.83a30.47,30.47,0,0,1,4.5,6.4c2.63,5.64,5.07,11.38,7.24,17.2,1.49,4,2.2,4.81,6.52,4.8q38.14-.07,76.29-.17,14.44,0,28.89-.17c4.92,0,6.73-2.75,4.71-7.28-.92-2.07-2.19-4-3.28-6-1.62-2.95-3.55-5.79-4.76-8.9-6.76-17.37-10.39-35.24-8-54,.42-3.32-.9-5.34-3.53-5.66s-4.52,1.25-5,4.47q-.44,2.76-.63,5.54C390.4,479,393.21,494.18,398,509c1.92,6,4.83,11.59,7.38,17.61-4.37,0-9,0-13.58,0q-40.68.15-81.36.34c-1.7,0-2.28-.61-2.74-2.14a65.93,65.93,0,0,0-9.49-19.2c-1.51-2.12-3.17-4.13-4.91-6.38,4.62-1.59,9.07-3.1,13.49-4.67,6.73-2.4,13.16-5.34,18.3-10.48,3.67-3.68,5.83-8.06,5.63-13.37a4.07,4.07,0,0,0-3.95-4.14c-2.26-.13-4.45,1.28-4.51,3.52-.17,5.9-3.81,9.33-8.43,11.71A120,120,0,0,1,298.92,488c-17.34,6.11-34.6,12.45-52.53,16.7-4.9,1.16-8.42-.82-10-5.59a18.2,18.2,0,0,1-.45-10.46c2-8.14-.18-14.32-7.93-18.12-.12-.06-.16-.27-.32-.56.27-.51.55-1.11.9-1.66,2.18-3.48,1.88-5.14-1.43-7.72l-4.08-3.23c1-2,2-3.65,2.77-5.41,3.28-7.3,1.23-13.72-5.65-17.74-1.38-.8-2.87-1.44-4.23-2.29-1.7-1.05-3.31-2.25-5.22-3.56,1.34-1.94,2.4-3.65,3.63-5.23a178.17,178.17,0,0,0,18.45-29c5.52-10.9,5.11-13.21-3.69-21.77-.24-.24-.47-.49-.72-.71a4.34,4.34,0,0,1-1.11-5.7c4.27-8.77,6.5-18.21,9.3-27.49,6.59-21.86,19.83-37.81,42.44-44.5a229.19,229.19,0,0,1,57.84-9.27c15.77-.5,30.57,3.57,44.4,11.18,2.87,1.57,5.31,1.05,6.6-1.26s.42-4.73-2.38-6.28a93.25,93.25,0,0,0-25.68-9.8c-4.93-1.05-9.94-1.71-14.92-2.55m-98.1,80.43a4.24,4.24,0,0,0,3.84-3.21c.57-2.11,1-4.27,1.54-6.39,3-11.53,8.18-21.78,17.84-29.25A45.2,45.2,0,0,1,285.63,310a4.09,4.09,0,0,0,3.27-4.27,3.79,3.79,0,0,0-3-3.92,7,7,0,0,0-3.22.1c-24.89,6.83-36.54,27.56-40.43,49.87C241.83,354.28,244.1,356.46,246.79,356.43Zm-5.36,14.73a4.32,4.32,0,0,0,4.19-4.45,4.13,4.13,0,0,0-4.44-4.12,4.3,4.3,0,0,0-4.14,4.25A4.46,4.46,0,0,0,241.43,371.16Z" transform="translate(-108.17 -181.19)"/><path class="cls-7" d="M396.35,428.68,379,449.28a6,6,0,0,1-8.61.62l-42.54-37.77a5.44,5.44,0,0,1-.42-.41l-40-43.12a6,6,0,0,1-1.61-4.09V337.6a6,6,0,0,1,1.48-4l14.23-16.39a6,6,0,0,1,2-1.51l15.24-7.15a6,6,0,0,1,2.56-.57h19a6,6,0,0,1,3.26,1l12.66,8.13c.28.17-2.94,3.85-2.7,4.07l16.72,15c.88.8,4.93-1.58,5.22-.42l22.13,87.58A6,6,0,0,1,396.35,428.68Z" transform="translate(-108.17 -181.19)"/><path d="M462,353.05c-.57,3-1,6.13-1.75,9.13a47.75,47.75,0,0,1-12.65,21.87Q436,395.73,424.44,407.48a8.91,8.91,0,0,0-1.92,2.89,13.4,13.4,0,0,1-10.06,8.71,3,3,0,0,0-2,1.66c-1.28,6.39-5.12,10.06-11.45,11.26-.32.06-.64.18-1,.28-1,7.31-5.15,11.55-12.57,12.64-.22,1-.39,2.11-.69,3.14a13.17,13.17,0,0,1-22.15,5.52c-9.24-9.16-18.33-18.46-27.49-27.7-13.56-13.68-27.23-27.25-40.65-41.07C281.31,371.26,276.94,355,282.37,337s18-29.51,36.68-33.22c15.8-3.14,29.73,1.35,41.55,12.29,2.48,2.29,2.79,4.92,1,6.85s-4.4,1.74-6.89-.56c-14.52-13.41-35.45-14.54-50.54-2.74a39.27,39.27,0,0,0-3.85,58.78c19,19.46,38.25,38.68,57.4,58,3.5,3.54,7,7.09,10.53,10.61,2.35,2.34,5.22,2.54,7.14.57s1.81-4.73-.61-7.17q-25.49-25.75-51-51.52c-1-1-2.1-2.5-2.12-3.78a5.14,5.14,0,0,1,2-3.89c1.11-.65,3-.25,4.45.08.78.18,1.39,1.17,2.05,1.83L380,433.33c.53.54,1,1.11,1.62,1.6a4.54,4.54,0,0,0,6.21.09,4.73,4.73,0,0,0,.48-6.43,15.91,15.91,0,0,0-1.38-1.47q-20.14-20.36-40.34-40.66a8.74,8.74,0,0,0-4-2.12c-5.1-1.21-8.73-4-10.33-9s-.68-9.62,3-13.37c15.6-15.82,30.94-31.92,47-47.24,13.31-12.69,29.53-16.12,47-10.24S457.11,323,461,341c.39,1.8.66,3.63,1,5.45Zm-41.32,44.13c7.63-7.21,16-14.26,23.34-22.27,8-8.75,10.73-19.71,8.62-31.38-2.79-15.48-11.74-26.29-26.81-31.08s-28.35-1-39.46,10.12c-14.63,14.63-29.15,29.37-43.71,44.07a12,12,0,0,0-1.8,2.11,4.64,4.64,0,0,0,.86,5.78,4.36,4.36,0,0,0,5.79.28,15.92,15.92,0,0,0,1.85-1.73l28.7-29c3.8-3.85,5.26-3.73,9.18.09,5.32,5.16,11.42,8.77,19.21,7.8,5.13-.63,9.32-3.22,12.88-6.95,2-2.08,4.45-2.14,6.3-.41a4.1,4.1,0,0,1,.13,6.11c-7.25,7.83-16.05,11.59-26.81,9.6a32.6,32.6,0,0,1-15.89-8.14L378.32,356ZM353,382q20.42,19.88,40.83,39.74c2.22,2.15,4.86,2.24,6.77.37s1.84-4.59-.11-6.82c-.38-.44-.81-.85-1.23-1.27L362,376.45c-.57-.58-1.2-1.12-1.71-1.6Zm13.35-13.6c.32.37.58.69.87,1L406,408.59a10.42,10.42,0,0,0,1.31,1.18,4.52,4.52,0,0,0,5.81-.34,4.64,4.64,0,0,0,.78-5.78,12,12,0,0,0-1.81-2.1q-18.86-19.07-37.75-38.1c-.52-.52-1.09-1-1.45-1.3C370.61,364.33,368.48,366.35,366.31,368.43Z" transform="translate(-108.17 -181.19)"/><path d="M344.89,276c5,.84,10,1.5,14.92,2.55a93.25,93.25,0,0,1,25.68,9.8c2.8,1.55,3.67,4,2.38,6.28s-3.73,2.83-6.6,1.26c-13.83-7.61-28.63-11.68-44.4-11.18A229.19,229.19,0,0,0,279,294c-22.61,6.69-35.85,22.64-42.44,44.5-2.8,9.28-5,18.72-9.3,27.49a4.34,4.34,0,0,0,1.11,5.7c.25.22.48.47.72.71,8.8,8.56,9.21,10.87,3.69,21.77a178.17,178.17,0,0,1-18.45,29c-1.23,1.58-2.29,3.29-3.63,5.23,1.91,1.31,3.52,2.51,5.22,3.56,1.36.85,2.85,1.49,4.23,2.29,6.88,4,8.93,10.44,5.65,17.74-.8,1.76-1.76,3.45-2.77,5.41l4.08,3.23c3.31,2.58,3.61,4.24,1.43,7.72-.35.55-.63,1.15-.9,1.66.16.29.2.5.32.56,7.75,3.8,10,10,7.93,18.12a18.2,18.2,0,0,0,.45,10.46c1.6,4.77,5.12,6.75,10,5.59,17.93-4.25,35.19-10.59,52.53-16.7a120,120,0,0,0,14.88-6.26c4.62-2.38,8.26-5.81,8.43-11.71.06-2.24,2.25-3.65,4.51-3.52a4.07,4.07,0,0,1,3.95,4.14c.2,5.31-2,9.69-5.63,13.37-5.14,5.14-11.57,8.08-18.3,10.48-4.42,1.57-8.87,3.08-13.49,4.67,1.74,2.25,3.4,4.26,4.91,6.38a65.93,65.93,0,0,1,9.49,19.2c.46,1.53,1,2.15,2.74,2.14q40.68-.23,81.36-.34c4.6,0,9.21,0,13.58,0-2.55-6-5.46-11.65-7.38-17.61-4.76-14.78-7.57-29.93-6.43-45.58q.19-2.78.63-5.54c.49-3.22,2.31-4.8,5-4.47s3.95,2.34,3.53,5.66c-2.36,18.75,1.27,36.62,8,54,1.21,3.11,3.14,6,4.76,8.9,1.09,2,2.36,3.91,3.28,6,2,4.53.21,7.24-4.71,7.28q-14.44.11-28.89.17-38.15.1-76.29.17c-4.32,0-5-.82-6.52-4.8-2.17-5.82-4.61-11.56-7.24-17.2a30.47,30.47,0,0,0-4.5-6.4c-4-4.76-4.37-4.66-10.24-2.83-9.5,2.95-19.14,5.46-28.59,8.56-9,2.95-20-.57-22.39-14a39.7,39.7,0,0,1,.25-12.25c.66-4.74.51-5.86-3.36-8.16-6.24-3.7-6.87-5.37-4.63-12.54-1-.86-2.14-1.76-3.22-2.68-2.82-2.41-3.41-4.4-2-7.85.89-2.17,2.15-4.19,3.18-6.32,1.88-3.88,1.34-5.56-2.34-7.65-2.35-1.33-4.77-2.55-7-4-6.14-4-7.44-9.49-3.51-15.62,2.37-3.68,5.41-6.94,7.69-10.67,5-8.19,9.74-16.57,14.63-24.84a3.23,3.23,0,0,0-.71-4.5c-1.06-1-2.09-2-3.16-2.92-5.11-4.57-6.7-10-3.86-16.2,4-8.72,6.3-17.93,9-27.05,5.05-16.78,14.05-31,28.87-41,10.05-6.73,21.4-10.4,33.19-12.45,12.87-2.23,25.85-3.86,38.78-5.77a12.43,12.43,0,0,0,1.45-.39Z" transform="translate(-108.17 -181.19)"/><path d="M246.79,356.43c-2.69,0-5-2.15-4.53-4.62,3.89-22.31,15.54-43,40.43-49.87a7,7,0,0,1,3.22-.1,3.79,3.79,0,0,1,3,3.92,4.09,4.09,0,0,1-3.27,4.27A45.2,45.2,0,0,0,270,317.58c-9.66,7.47-14.81,17.72-17.84,29.25-.55,2.12-1,4.28-1.54,6.39A4.24,4.24,0,0,1,246.79,356.43Z" transform="translate(-108.17 -181.19)"/><path d="M241.43,371.16a4.46,4.46,0,0,1-4.39-4.32,4.3,4.3,0,0,1,4.14-4.25,4.13,4.13,0,0,1,4.44,4.12A4.32,4.32,0,0,1,241.43,371.16Z" transform="translate(-108.17 -181.19)"/><path class="cls-8" d="M420.68,397.18,378.32,356l4.74-3.82A32.6,32.6,0,0,0,399,360.34c10.76,2,19.56-1.77,26.81-9.6a4.1,4.1,0,0,0-.13-6.11c-1.85-1.73-4.32-1.67-6.3.41-3.56,3.73-7.75,6.32-12.88,6.95-7.79,1-13.89-2.64-19.21-7.8-3.92-3.82-5.38-3.94-9.18-.09l-28.7,29a15.92,15.92,0,0,1-1.85,1.73,4.36,4.36,0,0,1-5.79-.28,4.64,4.64,0,0,1-.86-5.78,12,12,0,0,1,1.8-2.11c14.56-14.7,29.08-29.44,43.71-44.07,11.11-11.11,24.44-14.9,39.46-10.12s24,15.6,26.81,31.08c2.11,11.67-.62,22.63-8.62,31.38C436.69,382.92,428.31,390,420.68,397.18Z" transform="translate(-108.17 -181.19)"/><path class="cls-7" d="M353,382l7.3-7.18c.51.48,1.14,1,1.71,1.6l37.25,37.6c.42.42.85.83,1.23,1.27,1.95,2.23,2,5,.11,6.82s-4.55,1.78-6.77-.37Q373.36,401.93,353,382Z" transform="translate(-108.17 -181.19)"/><path class="cls-7" d="M366.31,368.43c2.17-2.08,4.3-4.1,6.59-6.28.36.32.93.78,1.45,1.3q18.88,19,37.75,38.1a12,12,0,0,1,1.81,2.1,4.64,4.64,0,0,1-.78,5.78,4.52,4.52,0,0,1-5.81.34,10.42,10.42,0,0,1-1.31-1.18l-38.83-39.17C366.89,369.12,366.63,368.8,366.31,368.43Z" transform="translate(-108.17 -181.19)"/><path class="cls-9" d="M511.58,413.89a176,176,0,0,1-176,176c-97.22,0-176-78.79-176-176a176,176,0,0,1,176-176C432.75,237.88,511.58,316.71,511.58,413.89Z" transform="translate(-108.17 -181.19)"/><path class="cls-10" d="M331.09,231.92A172.8,172.8,0,0,0,190.27,499.26c3.74-116.11,92.5-203.59,202.78-197.2,36.16,2.1,70.25,14,100.06,33.24a172.77,172.77,0,0,0-162-103.38Z" transform="translate(-108.17 -181.19)"/></svg>